<svg xmlns="http://www.w3.org/2000/svg" width="113.023" height="29.055" viewBox="0 0 113.023 29.055"><g transform="translate(0 -0.038)"><g transform="translate(0 0.038)"><path d="M106.833,2.208s-1.017,1.381-1.526,2.217c0,0-1.563,2.689-2.18,4.034,0,0-1.417,3.125-1.744,3.634,0,0-1.781,3.089-2.4,4.215,0,0-1.563,2.58-2.035,3.2a.758.758,0,0,0-.145.763s.073.218.145.4c0,0,.363.4.908-.363a39.735,39.735,0,0,0,3.707-5.269,41.325,41.325,0,0,0,2.616-4.651s1.526-3.307,2.507-5.015c0,0,.836-1.708.8-.509a6.609,6.609,0,0,1-.073,1.272c-.145,1.127-.472,3.2-1.017,7.3,0,0-.908,5.269-1.345,7.631,0,0-1.017,6.541-1.236,7.595,0,0-.291,1.272.182,1.417,0,0,1.017.363,1.2-.254,0,0,.472-1.817.618-2.471,0,0,1.381-7.3,1.635-8.867,0,0,1.962-9.957,1.926-12.5a8.021,8.021,0,0,0-.218-2.907,3.514,3.514,0,0,0-.545-.945.864.864,0,0,0-.69-.363A1.167,1.167,0,0,0,106.833,2.208Z" transform="translate(-61.591 -1.131)" fill="#033e62"/><path d="M151.643,6.819c-.073-.036-.182,0-.254-.073.182-.182-.327-.109-.654-.109h-1.49c-.763,0-1.417.036-2.144,0-.69,0-1.563.073-2.253.073h-.872c-3.6.073-8.067.654-8.067.654-3.925.545-8.9,1.708-8.9,1.708-.545.109-.8.182-.8.182-.109-.654-.581-2.943-.581-2.943-.145-.727-.4-2.108-.509-2.58-.036-.182-.073-.436-.073-.436a1.3,1.3,0,0,0-.145-.618c-.218-.363-1.017-.363-1.017-.363-.436.036-.69.836-.69.836a41.928,41.928,0,0,1-2.144,4.506,14.021,14.021,0,0,1-2.58,3.271,4.923,4.923,0,0,1-2.035,1.381c-.581.109-.036-.363-.036-.363a9.071,9.071,0,0,0,1.817-2.907,2.087,2.087,0,0,0-.581-2.725c-1.381-.654-3.052,1.054-3.052,1.054a5.173,5.173,0,0,0-1.526,4.579c.036.218-.036.254-.036.254-.4.291-3.307,1.454-3.307,1.454-.291.109-.472-.218-.472-.218a2.356,2.356,0,0,1-.327-1.6c.036-.363.145-.763.145-.872a.127.127,0,0,1,.036-.073c1.017-.836,4.324-4.47,4.324-4.47a39.036,39.036,0,0,1,2.98-2.689A5.382,5.382,0,0,0,117.23,3a2.273,2.273,0,0,0,.545-.727,1.231,1.231,0,0,0-.036-1.272,2.9,2.9,0,0,0-.654-.618,2.559,2.559,0,0,0-2.253-.145c-4,1.672-6.577,6.323-6.577,6.323a10.316,10.316,0,0,0-.908,4.143.113.113,0,0,1-.036.073,24.213,24.213,0,0,0-1.962,2.4.572.572,0,0,1-.545.327,3.2,3.2,0,0,1-.545-.073,7.83,7.83,0,0,0-2.8.109c-.654.291-.727.182-.727.182-.073-.182.472-.436.472-.436.618-.327,2.8-1.308,2.8-1.308a2.812,2.812,0,0,1,.945-.254h.073a1.949,1.949,0,0,0,.69-.036c.4-.182.182-.8.182-.8a.732.732,0,0,0-.654-.472,9.586,9.586,0,0,0-5.487,1.926c-.218.182-.291.182-.291.182a2.316,2.316,0,0,1-.327-.073.976.976,0,0,0-.545,0c-.291.182-.872.618-.872.618-.472.363-.472-.109-.472-.109,0-.327-.109-1.49-.109-1.49-.036-.254-.073-.436-.073-.436a.889.889,0,0,0-.254-.509,3.006,3.006,0,0,0-.581-.436,1.178,1.178,0,0,0-.872,0,8.4,8.4,0,0,0-1.672,1.2c-.472.363-.436,0-.436,0,0-.109.4-.545.4-.545.291-.327-.036-.872-.036-.872a1.423,1.423,0,0,0-.509-.436,1.273,1.273,0,0,0-.872,0c-.872.291-4.651,1.381-4.651,1.381a69.125,69.125,0,0,0-11.883,4.76c-2.507,1.236-14.354,5.705-14.354,5.705-.981.363-.581,1.054-.581,1.054a.892.892,0,0,0,1.163.509,116.328,116.328,0,0,0,13.3-5.305c1.6-.981,8.322-3.743,8.322-3.743,1.381-.618,6.977-2.289,6.977-2.289.436-.145.291.109.291.109l-.218.327c-.872.945-2.289,2.98-2.289,2.98a2.136,2.136,0,0,0-.363,1.017c-.109.981.509.945.509.945a2.9,2.9,0,0,0,2.326-.872c.618-.472,4.215-3.67,4.215-3.67.436-.472.363-.073.363-.073.036.073.036,1.817.036,1.817a1.379,1.379,0,0,0,.618,1.127,4.55,4.55,0,0,0,1.417.145c.509-.036.581-.618.581-.618.327-.109.4.073.4.073.4.545.763.509.763.509a5.223,5.223,0,0,0,2.289-.4,8.052,8.052,0,0,1,2.144-.182c.581-.073.291.109.291.109-.908,1.054-3.38,4.47-3.38,4.47a11.367,11.367,0,0,0-2.18,4.506,4.587,4.587,0,0,0-.036,1.563,1.267,1.267,0,0,0,.908.945,4.04,4.04,0,0,0,2.144-.073,13.5,13.5,0,0,0,5.16-4,8.512,8.512,0,0,0,1.381-4.252,4.683,4.683,0,0,0-1.272-3.816.45.45,0,0,1-.145-.291c.109-.182.8-1.054.8-1.054.182-.254.291-.109.291-.109a7.066,7.066,0,0,0,.981,1.635c.8,1.163,1.635.763,1.635.763.581-.182,1.6-.654,1.6-.654.654-.254,2.326-.908,2.326-.908a2.331,2.331,0,0,0,.4.182,5.714,5.714,0,0,0,2.326.182,3.768,3.768,0,0,0,1.817-1.054c.363-.254.472-.073.472-.073.218.436,1.2.836,1.2.836a7.087,7.087,0,0,0,3.271.291c1.744-.291,2.18-1.017,2.18-1.017.545-.545.436-2.144.436-2.144l.472-.145c2.362-.8,8.031-1.853,8.031-1.853a57.162,57.162,0,0,1,7.05-.872c1.708-.109,4.579-.182,4.579-.182h.727a3.526,3.526,0,0,0,.618-.036,10.212,10.212,0,0,0,1.054-.036.618.618,0,0,0,.254-.036c.109-.036.182,0,.291-.036.073,0,.145-.073.254-.073a.461.461,0,0,0,.218-.036.539.539,0,0,0,.254-.036l.218-.109c.109,0,.182-.036.291-.036s.145-.036.218-.036c.036-.109-.109-.109-.145-.182C150.807,6.965,151.752,7.074,151.643,6.819ZM109.489,7.837a2.7,2.7,0,0,1,.291-.545,15.7,15.7,0,0,1,4.106-4.724,6.781,6.781,0,0,1,.581-.363,3.54,3.54,0,0,1,.4-.182l.363-.145.218-.073a1.088,1.088,0,0,0,.291-.145c.036-.036.363-.145.182.073a1.886,1.886,0,0,1-.291.327s-3.016,2.98-3.343,3.343c0,0-2.289,2.4-2.58,2.762C109.744,8.2,109.162,8.891,109.489,7.837Zm-3.416,10.357a8.413,8.413,0,0,1-1.89,3.888,9.858,9.858,0,0,1-2.725,2.326,1.753,1.753,0,0,1-1.49.254s-.327-.073,0-1.054a7.93,7.93,0,0,1,.908-2.108,20.761,20.761,0,0,1,1.853-2.725s1.744-2.253,2.108-2.762c0,0,.182-.291.327-.472,0,0,.327-.436.472-.073A4.293,4.293,0,0,1,106.074,18.194Zm9.739-8.431s-.545.763-.872,1.127c0,0-.291.254-.218-.327a2.445,2.445,0,0,1,.436-1.272,4.328,4.328,0,0,1,.872-1.163s.291-.254.436-.363c0,0,.254-.145.182.182A12.282,12.282,0,0,1,115.812,9.763Zm5.087.908s-.073-.145.218-.436a13.879,13.879,0,0,0,2.289-3.852,4.843,4.843,0,0,0,.218-.509s.218-.363.291.073a10.509,10.509,0,0,0,.436,1.817s.291,1.272.327,1.526c0,0,.109.218-.073.327,0,0-2.834.763-3.38,1.017C121.227,10.708,120.972,10.817,120.9,10.671Zm3.634.872a2.741,2.741,0,0,1-1.49.618,2.46,2.46,0,0,1-1.017-.036s-.254-.073.073-.218c0,0,1.526-.472,2.253-.69a2.045,2.045,0,0,1,.363-.073C124.824,11.144,124.788,11.325,124.534,11.543Z" transform="translate(-38.628 -0.038)" fill="#033e62"/><path d="M2.035,28.9a18.746,18.746,0,0,0,6.359-.036,100.2,100.2,0,0,0,14.826-2.8s8.939-2.834,10.72-4.833a2.129,2.129,0,0,0,.727-2.108s-.073-1.672-5.015-2a18.756,18.756,0,0,0-6.759.981s-5.524,1.962-6.65,2.507c0,0-.908.436-1.345-.109a.888.888,0,0,1,.509-1.163s4.324-1.526,5.633-2.144A45.272,45.272,0,0,0,25.982,14.7s.836-.545-.145-.509a17.59,17.59,0,0,0-5.015,1.054s-3.052,1.017-4.506,1.672c0,0-1.454.618-2,.8a.9.9,0,0,1-1.054-.327.726.726,0,0,1,.291-.981,68.723,68.723,0,0,1,9.7-3.125,11.975,11.975,0,0,1,4.869-.073s.727.182.8.654c0,0,.254.509-.945,1.417,0,0-.472.363-.654.509a30.479,30.479,0,0,1,3.452.254s4.252.509,5.051,2.616a2.919,2.919,0,0,1-1.09,3.6s-5.524,4.288-17.225,6.4A110.007,110.007,0,0,1,6.541,30.14a15.405,15.405,0,0,1-5.233-.363,1.532,1.532,0,0,1-.763-.4,2.075,2.075,0,0,1-.472-.763.782.782,0,0,1-.073-.4,1.252,1.252,0,0,1,.036-.327c0-.073.073-.073.145-.073.073-.145.036-.291.109-.4H.327a.275.275,0,0,1,.036-.145c.109,0,.073.145.182.109a.894.894,0,0,1,.145-.4c.073-.109.073-.254.182-.327,0,.109.073.109.109.073s.036-.145.109-.145c.036.036.036.109.073.145a.461.461,0,0,1,.036.218c.036.145-.036.218,0,.363v.363c0,.145-.036.254-.036.4A.964.964,0,0,0,2.035,28.9Z" transform="translate(0 -8.278)" fill="#033e62"/><g transform="translate(16.534 0.982)"><g transform="translate(0 6.09)"><g opacity="0.85"><path d="M46.4,23.7Z" transform="translate(-46.073 -22.174)" fill="#033e62"/><path d="M46.6,23.6Z" transform="translate(-46.2 -22.11)" fill="#033e62"/><path d="M46.7,23.6Z" transform="translate(-46.264 -22.11)" fill="#033e62"/><path d="M46.6,23.6Z" transform="translate(-46.2 -22.11)" fill="#033e62"/><path d="M46.6,23.6Z" transform="translate(-46.2 -22.11)" fill="#033e62"/><path d="M46.345,23.355h0c.036,0,.073-.036.109-.036h.036c.036,0,.109-.073.073-.036-.109,0-.145,0-.218.073a.523.523,0,0,0-.109.073H46.2l.073-.036A.127.127,0,0,1,46.345,23.355Z" transform="translate(-45.946 -21.901)" fill="#033e62"/><path d="M45.6,23.936h0c.036,0,.073-.036.109-.036h0c-.036,0-.073.036-.109.036Z" transform="translate(-45.564 -22.301)" fill="#033e62"/><path d="M45.5,24Z" transform="translate(-45.5 -22.365)" fill="#033e62"/><path d="M46.973,20.917a.525.525,0,0,1,.254-.073h.109l-.036-.073h0c.036,0,.036-.036.073-.036h0s.036-.036.036,0h0l.073-.036a.036.036,0,0,0,.036-.036h0l-.036.036a.036.036,0,0,0,.036-.036h.036a.113.113,0,0,0,.073-.036c-.036,0-.036,0-.073.036h-.036a.036.036,0,0,0-.036.036l.109-.036c.254-.109.472-.218.763-.327a3.541,3.541,0,0,0,.4-.182c.327-.145.109-.036.8-.327a2.17,2.17,0,0,0,.4-.218l.073-.073c.036-.036,0-.036,0-.036h-.036c-.109,0-.145.073-.327.145.109-.036-.073.073-.182.109a.769.769,0,0,0-.254.109,2.158,2.158,0,0,0-.291.145.636.636,0,0,1-.182.036,9.293,9.293,0,0,0-.872.4l-.218.109c-.036.036-.109.036-.145.073-.073.036-.109.073-.182.073a.278.278,0,0,1,.182-.073l-.036.036h-.036c-.036,0-.036.036-.073.036h-.036c-.036.036-.073.036-.109.073h-.145c-.073.036-.109.073-.182.073h0a.133.133,0,0,1,.109-.036h0c0,.073-.036.073-.036.109-.036-.036-.036,0,0,0h0Z" transform="translate(-46.391 -19.5)" fill="#033e62"/><path d="M48,22.972h.036C48.036,22.935,48.036,22.972,48,22.972Z" transform="translate(-47.092 -21.7)" fill="#033e62"/></g></g><g transform="translate(41.862 9.89)"><g transform="translate(0)"><g opacity="0.85"><path d="M161.7,33.7Z" transform="translate(-161.337 -32.339)" fill="#033e62"/><path d="M161.7,33.6Z" transform="translate(-161.337 -32.276)" fill="#033e62"/><path d="M161.7,33.5Z" transform="translate(-161.337 -32.212)" fill="#033e62"/><path d="M161.7,33.6Z" transform="translate(-161.337 -32.276)" fill="#033e62"/><path d="M161.7,33.6Z" transform="translate(-161.337 -32.276)" fill="#033e62"/><path d="M161.6,33.409h0v.036C161.636,33.445,161.6,33.409,161.6,33.409Z" transform="translate(-161.273 -32.085)" fill="#033e62"/><path d="M161.7,33.936h0V33.9h0v.036Z" transform="translate(-161.337 -32.467)" fill="#033e62"/><path d="M161.7,34.1Z" transform="translate(-161.337 -32.594)" fill="#033e62"/><path d="M161.063,31.207V31.1h0v-.036h0v-.036h0v-.036h0v0h0v0h0v-.036a1.363,1.363,0,0,0-.036-.363.4.4,0,0,0-.036-.182c0-.145-.109-.218-.145-.363l-.036-.073h0c-.036,0-.036-.036-.036,0-.036.036-.036,0-.036.036h0l.036.036c.036.036.036,0,.036,0,0-.036,0-.036-.036-.036l-.036-.036H160.7v.073c0-.036.036.036.036.073,0,.073.073.145.109.254v.073c.036.145.036.254.073.4a.133.133,0,0,0,.036.109v.182h0v.073h0q.109-.055.109,0h0v0Z" transform="translate(-160.7 -29.956)" fill="#033e62"/><path d="M161.6,32.9Z" transform="translate(-161.273 -31.83)" fill="#033e62"/></g></g></g><g transform="translate(28.453 13.249)"><g opacity="0.8"><path d="M125.544,39.345c-.036.291-.073.581-.109.836-.073.327-.182.836-.254,1.236-.036.254-.073.436-.109.654-.073.436-.145.908-.218,1.381,0,.036-.036.218,0,.182-.073.363-.109.727-.145.981h-.145s-.036,0,.036.073c.109.036.073-.036.109-.036h0v.073l-.036.109c0,.073-.036.145-.036.218-.036.182-.073.4-.109.581-.036.327-.145.618-.182.945,0,.036,0,.145-.036.182-.073.436-.145.8-.218,1.2-.036.182-.036.291-.073.436v.073c0,.036-.036.254-.073.436,0,.073-.036.182-.036.254v.036h-.073c0,.036-.036,0-.036-.036h0v0h0c.036.036.036.036.073.036h.036v-.109c.036-.109.036-.291.073-.436.036-.182.036-.327.073-.436a.636.636,0,0,0,.036-.182,6.781,6.781,0,0,0-.145.908c.073-.763.182-1.236.218-1.49.036-.291.073-.363.036-.291,0,.109-.145.69-.218,1.127-.036.145-.036.363-.073.618a3.765,3.765,0,0,0,.036-.581,5.887,5.887,0,0,1,.109-.727c.073-.327.145-.908.218-1.2a7.115,7.115,0,0,1-.109.727c.109-.472.073-.545.182-1.054a.275.275,0,0,1,.036-.145c0-.073.036-.109.036-.182a3.18,3.18,0,0,0,.073-.581c0-.109.036-.182.036-.291l.036-.145v-.145h0s-.036-.036.073-.036c.073.036.036.036.036.073h0a.133.133,0,0,1-.109-.036v0l.145.036h0v-.036H124.6v.036h0v.036a4.99,4.99,0,0,0-.182,1.017.618.618,0,0,1-.036.254l-.109.436c.036-.291.109-.618.145-.908a.272.272,0,0,1,.036-.182c-.036.145-.036.291-.073.436a12.052,12.052,0,0,1-.291,1.49v.073a.516.516,0,0,1-.073.218l.036-.182c.073-.509.218-1.09.291-1.635,0-.109.073-.327.073-.436a.9.9,0,0,0,.036-.291c0-.036.036-.109.036-.145v-.145h0l.109-.036.109.073v.036h0l-.218-.036c.036-.145.036-.291.073-.509.218-1.308.436-2.58.727-3.852V40.29c0-.036,0-.036.036-.073,0-.109.036-.182.073-.472v.109h0v-.073a9.083,9.083,0,0,1-.182,1.054c0-.036.036-.145.036-.182.036-.109.036-.254.073-.327.109-.363.145-.69.218-.981h0l-.109-.036h.073v-.073c.036,0-.109-.036-.109-.036l.036.109h0L125.4,39.2h0l.036.036c.036,0,.036,0,.073.036h0v.073h.036Zm-.836,4.433a1.124,1.124,0,0,1,.073-.291v-.109a.218.218,0,0,1,.036-.145l.109-.545c-.036.182-.073.363-.109.618.073-.618.218-1.127.327-1.708.036-.182.073-.363.109-.509.036-.109.036-.218.073-.363-.254,1.308-.509,2.58-.69,3.888l.182.036h0v-.036l-.145-.036-.036.036h0v.073l-.036.073c0,.036-.036.109-.036.145-.036.109-.036.218-.073.327.036-.109.036-.218.073-.327l.036-.145.036-.073v-.073h0l.036-.036.109.036v.036h0l-.145-.036A2.3,2.3,0,0,1,124.708,43.779Zm-.036.182a3.623,3.623,0,0,0-.073.581v.073h.073c0-.036-.073,0-.073,0h0v.073l-.036.109-.036.182c-.036.109-.036.254-.073.363-.036.145-.036.327-.073.618.036-.218.073-.436.109-.69.036-.109.036-.254.073-.363l.036-.182.036-.073v-.073h0c-.036-.036.073,0,.073,0h-.073v0h.036v.036h0s0-.036.036,0v.036h-.073c.036-.109.036-.327.073-.581A.133.133,0,0,1,124.672,43.96Z" transform="translate(-123.8 -39.2)" fill="#033e62"/><path d="M126.481,43.054c.036-.218.109-.436.145-.654a2.316,2.316,0,0,0-.073.254c-.073.254-.109.581-.182.836-.182.8-.291,1.635-.436,2.507,0,.036-.036.145-.036.218C126.082,45.125,126.227,44.108,126.481,43.054Z" transform="translate(-125.137 -41.237)" fill="#033e62"/><path d="M125.073,55.554c-.036.182-.036.291-.073.472a2.127,2.127,0,0,0,.073-.472,4.223,4.223,0,0,1,.145-.654A4.224,4.224,0,0,0,125.073,55.554Z" transform="translate(-124.564 -49.195)" fill="#033e62"/><path d="M125.773,52.9a.275.275,0,0,1-.036.145,1.006,1.006,0,0,0-.036.327l.218.036h0v-.036l-.073-.073-.109.036v.036h0v.145l-.036.145c0-.036.036-.109.036-.145l.036-.073v-.036h0l.109-.036.073.073v.036h0l-.218-.036c.036-.109.036-.254.073-.363A.486.486,0,0,1,125.773,52.9Z" transform="translate(-125.01 -47.922)" fill="#033e62"/></g></g><g transform="translate(14.1 12.595)"><g opacity="0.8"><path d="M84.336,40.562h0V40.6c-.036,0-.036,0,0-.036h0L84.3,40.6a1.3,1.3,0,0,1,.4-.218,3.783,3.783,0,0,1,.436-.182l.218-.109c.036-.036-.073.036-.218.109l-.218.109.327-.109c.036-.036.109-.036.182-.073a7.318,7.318,0,0,1,.763-.4,1.36,1.36,0,0,0,.363-.218l-1.09.581H85.5l.581-.291c.036,0,.036-.036.109-.036l-.182-.036c-.073.036-.182.109-.254.145-.036.036-.145.073-.182.109-.036,0-.073.036-.145.073l-.073.036h-.036c.073,0,.836-.4.945-.436.109-.073.182-.109.291-.182a.133.133,0,0,1,.109-.036L86.7,39.4a.794.794,0,0,0,.182-.109c.036-.036.182-.036.182-.073s0,0,.109-.073a.127.127,0,0,1,.073-.036c.073-.036.073-.073.182-.109.109-.073.145-.073.254-.145a.794.794,0,0,0,.182-.109,2.55,2.55,0,0,0,.327-.218,3.806,3.806,0,0,1,.4-.291c.109-.109.182-.109.291-.218l.073-.073c.036,0,.036-.073.073-.073h0l.036-.036h0s0,.036.036,0,.109-.073.109-.109l.109-.109v-.036a.036.036,0,0,1,.036-.036h0v-.073h0l.036-.036h-.073c-.036,0-.036.036-.073.036v-.036c-.036.036-.036.036-.036,0h-.036V37.4a1.106,1.106,0,0,0-.291.291l-.073.073-.036.036v.036c-.073.073-.254.182-.218.182-.073.036-.073.073-.145.109a2.015,2.015,0,0,0-.291.218.484.484,0,0,1-.182.109c-.036,0-.036.036-.073.036-.472.254-.8.472-1.236.727a8.132,8.132,0,0,1-1.345.727c-.218.109-.363.182-.545.254-.327.254-.4.327-.4.363h0V40.6c-.036,0-.036,0,0-.036Z" transform="translate(-84.3 -37.4)" fill="#033e62"/></g></g><g transform="translate(19.005 11.509)"><g opacity="0.85"><path d="M98,37.4Z" transform="translate(-97.927 -36.314)" fill="#033e62"/><path d="M98,37.4Z" transform="translate(-97.927 -36.314)" fill="#033e62"/><path d="M98.1,37.3Z" transform="translate(-97.991 -36.25)" fill="#033e62"/><path d="M98,37.4Z" transform="translate(-97.927 -36.314)" fill="#033e62"/><path d="M98,37.4Z" transform="translate(-97.927 -36.314)" fill="#033e62"/><path d="M97.9,37.173h0l.036-.036V37.1a.113.113,0,0,1-.036.073v.036h0Z" transform="translate(-97.864 -36.123)" fill="#033e62"/><path d="M97.8,37.652h0c0-.036.036-.036,0,0Z" transform="translate(-97.8 -36.457)" fill="#033e62"/><path d="M97.8,37.672Z" transform="translate(-97.8 -36.477)" fill="#033e62"/><path d="M98.036,35.425c.036-.036.036-.036.036-.073h0v-.036h0v-.036h0v0h0l.036-.036c.036-.073.073-.182.109-.254,0-.036.036-.073.073-.145.036-.109,0-.182.036-.291v-.109h-.036l.036.036h0l-.036.036c-.073,0,0-.036-.036-.073,0-.073-.073,0-.036,0,0,.036,0,.036-.036.073.036-.036.036.036,0,.073-.036.073,0,.145-.036.218v.036c-.036.073-.073.218-.109.291v.073a.036.036,0,0,1-.036.036v.073a.113.113,0,0,1,.036-.073v.036h0v.036h0v.109Z" transform="translate(-97.927 -34.411)" fill="#033e62"/><path d="M98.3,36.9Z" transform="translate(-98.118 -35.996)" fill="#033e62"/></g></g><g transform="translate(69.298 11.396)"><g opacity="0.8"><path d="M236.2,35.7a1.519,1.519,0,0,0,.363-.145c.036,0,.036-.036.073-.036a.113.113,0,0,0-.073.036c-.036,0-.073.036-.109.036.036,0,.109-.036.145-.036s.036-.036.073-.036a2.142,2.142,0,0,0,.291-.145c.036,0,.109-.073.145-.073l-.218.145a1.028,1.028,0,0,1-.218.109h0l.254-.109.036-.036-.036.036c-.036,0-.073.036-.109.073l-.073.036c-.036,0-.036,0-.073.036h-.036a1.771,1.771,0,0,0,.4-.145l.109-.109a.036.036,0,0,0,.036-.036h0c.036-.036.073-.036.073-.073,0,0,.073,0,.073-.036s0,0,.036-.036v-.036c.036,0,.036-.036.073-.073s.073-.036.073-.109l.036-.073c.036-.036.036-.073.109-.109,0-.073.073-.109.073-.182l.073-.145v-.073h0v-.036h0c0-.036,0-.036.036-.073v-.073h0v-.036H237.8c-.036,0-.036-.036-.073-.036a.036.036,0,0,1-.036.036h-.036c0,.036-.036.109-.036.145v.073h.036c0,.036-.073.109-.036.109v.073c0,.036-.036.073-.073.145,0,.036-.036.036-.036.073v.036a4.145,4.145,0,0,0-.4.4,2.346,2.346,0,0,1-.908.509Z" transform="translate(-236.2 -34.1)" fill="#033e62"/></g></g><g transform="translate(60.816 0.421)"><g opacity="0.8"><path d="M212.91,6.734a1.383,1.383,0,0,0,.218-.182c.073-.036.254-.218.363-.291.073-.073.145-.109.182-.145.109-.109.254-.218.363-.327,0,0,.073-.036.036-.036a1.136,1.136,0,0,0,.327-.4c.036-.073.073-.109.109-.182.036-.109.109-.182.145-.291a.113.113,0,0,1,.036-.073.968.968,0,0,0,.109-.436c0-.073,0-.109.036-.145V3.9a.672.672,0,0,1,0,.436s.036-.291.036-.327a2.092,2.092,0,0,1-.036.545l-.036.109a2.714,2.714,0,0,0,.073-.4v0a.618.618,0,0,1-.036.254l-.145.436a.924.924,0,0,0,.073-.254,2.506,2.506,0,0,1-.145.363.036.036,0,0,1-.036.036c0,.036-.036.036-.036.073a3.2,3.2,0,0,1-.218.363l.036-.036a1.473,1.473,0,0,0,.182-.327l.036-.073.073-.145a2.158,2.158,0,0,1-.145.291.127.127,0,0,0-.036.073c.036-.036.036-.109.073-.145.073-.182.182-.4.218-.509h0l.036-.073-.036.073a3.411,3.411,0,0,1-.218.545.275.275,0,0,0-.073.145,2,2,0,0,1-.254.327,8.205,8.205,0,0,1-1.054.908l-.036.036h0l-.036.036a.5.5,0,0,1-.145.109c-.036,0,.036-.036.036-.036h-.073a1.821,1.821,0,0,0,.291-.254.127.127,0,0,1-.073.036.279.279,0,0,1-.109.073c.109-.036-.036.109-.109.145a.036.036,0,0,1-.036.036Zm1.236-1.017-.073.073-.036.036L214,5.862l-.145.145c.036-.036.109-.073.182-.145a2.5,2.5,0,0,1-.472.4.5.5,0,0,0-.145.109.279.279,0,0,1-.109.073c.218-.182.436-.327.618-.509a3.015,3.015,0,0,0,.545-.618A2.649,2.649,0,0,1,214.145,5.717Zm.036-.073.145-.145a1.508,1.508,0,0,0,.254-.472,3,3,0,0,1-.254.472c.109-.145.036-.036-.145.145Z" transform="translate(-212.859 -3.9)" fill="#033e62"/><path d="M214.082,9.363c-.073.036-.109.109-.182.145a.113.113,0,0,1,.073-.036c.073-.073.182-.109.254-.182.218-.182.472-.4.69-.618.036-.036,0,0,.036-.073A8.187,8.187,0,0,1,214.082,9.363Z" transform="translate(-213.522 -6.892)" fill="#033e62"/><path d="M217.409,7.245c.036-.073.073-.109.073-.145-.073.109-.073.109-.073.145a.794.794,0,0,1-.109.182A.794.794,0,0,0,217.409,7.245Z" transform="translate(-215.686 -5.937)" fill="#033e62"/><path d="M216.8,8.218h0c.073-.109.145-.145.182-.218-.073.073-.109.145-.182.218Z" transform="translate(-215.368 -6.51)" fill="#033e62"/></g></g><g transform="translate(30.379)"><g opacity="0.85"><path d="M130.7,27.309v0Z" transform="translate(-130.119 -18.312)" fill="#033e62"/><path d="M130.8,26.952Z" transform="translate(-130.182 -18.136)" fill="#033e62"/><path d="M130.8,26.5v0Z" transform="translate(-130.182 -17.866)" fill="#033e62"/><path d="M130.8,26.81h0v0Z" transform="translate(-130.182 -18.031)" fill="#033e62"/><path d="M130.772,26.9Z" transform="translate(-130.154 -18.121)" fill="#033e62"/><path d="M130.636,25.693v-.254a.366.366,0,0,1,.036-.109c0-.073.036-.291,0-.182a2.236,2.236,0,0,0-.036.472v.145h0c0,.109-.036.182-.036.254v.109l.036-.145a.461.461,0,0,1,.036-.218h0A.113.113,0,0,1,130.636,25.693Z" transform="translate(-130.055 -16.986)" fill="#033e62"/><path d="M130.3,28.991v-.036a.539.539,0,0,0,.036-.254v.036h0a1.162,1.162,0,0,0-.036.254Z" transform="translate(-129.864 -19.266)" fill="#033e62"/><path d="M130.3,29.636V29.6h0v.036Z" transform="translate(-129.864 -19.839)" fill="#033e62"/><path d="M129.754,10.975c0-.145.073-.254.073-.363h0c0-.109.036-.182.036-.291V10.1h0v0h0l.036-.218V9.848a.218.218,0,0,1,.036-.145V9.666h0V9.3c0,.036,0,.073-.036.073v0c0-.036,0-.036.036-.073a.4.4,0,0,1,.036-.182.328.328,0,0,1-.036.182v.218a1.006,1.006,0,0,1,.036-.327,19.021,19.021,0,0,0,.218-2.071,3.127,3.127,0,0,1,.036-.581c0-.109.036-.182.036-.291V5.96a6.443,6.443,0,0,0-.291-2.18,2.377,2.377,0,0,0-.618-.945c-.145-.109-.254-.109-.254-.073s.036.036.036.073a2.548,2.548,0,0,1,.509.69c-.145-.291.145.182.218.472a4.286,4.286,0,0,1,.145.727,6.158,6.158,0,0,1,.036.836v.727c0,.073-.036.218-.036.291a3.507,3.507,0,0,0,0,.618c-.036.4-.073.8-.109,1.236a4.046,4.046,0,0,1-.073.618c0,.145-.036.291-.036.4,0,.182-.036.327-.036.472a1.92,1.92,0,0,0,.036-.472V9.63c0,.036-.036.073-.036.109a.54.54,0,0,1-.036.218v.036c0,.109,0,.218-.036.254l.109.218v.145h0v.036h0v0h0v-.036h0a2.127,2.127,0,0,1-.073.472h0c0-.109.036-.182.036-.291h0v-.036c.036.109.036.073,0,.218,0,.036,0,.073-.036.073v.109A.486.486,0,0,0,129.754,10.975Z" transform="translate(-129.1 -2.74)" fill="#033e62"/><path d="M131.3,22.645v.036l.036-.182C131.3,22.536,131.3,22.573,131.3,22.645Z" transform="translate(-130.501 -15.319)" fill="#033e62"/></g></g><g transform="translate(45.86 15.611)"><g opacity="0.85"><path d="M185.3,47.8v.073C185.336,47.836,185.3,47.836,185.3,47.8Z" transform="translate(-180.358 -47.037)" fill="#033e62"/><path d="M185.3,48.4Z" transform="translate(-180.358 -47.419)" fill="#033e62"/><path d="M185.3,48.673v0Z" transform="translate(-180.358 -47.546)" fill="#033e62"/><path d="M185.3,48.5h0v0Z" transform="translate(-180.358 -47.483)" fill="#033e62"/><path d="M185.3,48.452Z" transform="translate(-180.358 -47.435)" fill="#033e62"/><path d="M185.373,47.836v.036c0,.073-.036.182-.036.218s-.036.073-.036.109v.182c.036-.182.036-.291.073-.472v-.363C185.373,47.654,185.373,47.727,185.373,47.836Z" transform="translate(-180.358 -46.782)" fill="#033e62"/><path d="M185.2,45.852v.036a.461.461,0,0,0,.036.218V46.07h0c0-.073,0-.182-.036-.218Z" transform="translate(-180.294 -45.78)" fill="#033e62"/><path d="M185.1,45.7l.036.036h0a.036.036,0,0,0-.036-.036Z" transform="translate(-180.231 -45.7)" fill="#033e62"/><path d="M176.606,49.545a4.1,4.1,0,0,1-.109.654v.036c0,.036,0,.036-.036.036l-.036.073v.036h0v0c0,.036,0,.036-.036.036,0,.036,0,.073-.036.073,0-.036,0-.073.036-.073v-.036h0c-.036.073-.036.145-.073.218v.036a.366.366,0,0,1-.036.109v.036h0c0,.036-.036.073-.073.145,0,.036-.036.073-.036.109a.036.036,0,0,1-.036.036v.073c0-.036.036-.036.036-.073.036-.036,0-.073.036-.109a.134.134,0,0,0-.036.109.127.127,0,0,0-.036.073c-.036.036-.036.109-.073.145.036-.073.036-.109.073-.145v-.073l.036-.036c0-.036.036-.073.036-.109-.036.109-.109.182-.145.291a9.692,9.692,0,0,1-1.054,1.744c-.218.291-.509.545-.727.836-.218.254-.509.472-.763.727-.254.218-.545.4-.836.618-.036.036-.073.036-.073.073h0a7.554,7.554,0,0,1-.727.545h-.036a1.074,1.074,0,0,0-.145.109h0s.036-.036.109.036c.036.073,0,.073,0,.073h-.036a.036.036,0,0,0-.036-.036h.036c.073-.036.145-.036.182-.073h0c.145-.073.291-.182.581-.363-.182.145,0-.036.182-.182h0c.073-.073.145-.109.182-.145a4.943,4.943,0,0,0,.618-.436c.218-.182.4-.4.618-.545a.858.858,0,0,0,.291-.327,9.175,9.175,0,0,0,.763-.908c.218-.327.436-.654.69-1.017.109-.254.182-.4.254-.581.036-.109.145-.254.182-.363a.543.543,0,0,0,.109-.254.461.461,0,0,0,.036-.218c-.036.073-.036.145-.073.218,0,.036-.036.073-.036.109s-.036.036-.036.073l-.036.036c-.036.073-.036.036,0,0V50.89a.127.127,0,0,1,.036-.073c0-.036.036-.073.036-.109s.036-.145.036-.218a.036.036,0,0,1,.036-.036,2.315,2.315,0,0,1,.073-.254l.036-.145v-.145a.036.036,0,0,1-.036.036.133.133,0,0,1,.036-.109.133.133,0,0,1-.036.109l.036-.036c0-.182.036-.327.036-.472h0c0,.073-.036.182-.036.254h0v.036a.278.278,0,0,0,.073-.182.113.113,0,0,0,.036-.073V49.4C176.606,49.436,176.606,49.545,176.606,49.545Z" transform="translate(-171.7 -48.055)" fill="#033e62"/><path d="M184.636,52.236V52.2c0,.073-.036.109-.036.182A.275.275,0,0,1,184.636,52.236Z" transform="translate(-179.912 -49.838)" fill="#033e62"/></g></g></g></g><g transform="translate(72.496 16.813)"><path d="M203.57,48.126v.109l-.036.363v1.2l-.036.073-.036.073-.036.073-.109.109-.073.073-.036.036-.073.036-.036.036-.073.036-.109.073-.073.036-.073.036h-.182l-.073.036-.109.036h-.363l-.218.036h-.618l-.073-.036-.218-.073-.073-.036-.073-.036-.109-.036-.073-.036-.109-.073-.073-.036-.073-.036-.073-.073-.073-.036-.073-.073-.109-.109-.073-.073-.073-.073-.036-.073-.145-.254-.036-.109-.036-.073-.036-.109-.036-.109v-.327l-.036-.145v-.654l.036-.109.036-.109.036-.109.036-.109.036-.073.036-.109.036-.109.036-.073.073-.109.036-.073.073-.073.073-.073v.073l.145-.145.073-.073.073-.036.073-.036.182-.109.073-.036.109-.036.109-.036.109-.036.218-.036.182-.036.073-.036h.763l.145.036.073.036.145.036.073.036.218.109.073.036.073.036h.036l.073.036.073.036.036.036.073.036.036.036.036.036v.145l-.036.036-.036.073-.073.073-.145.145-.109.109-.073.073-.073.036-.036.036-.036.036h-.036l-.073-.036-.073-.036-.073-.036-.073-.036-.109-.036-.109-.036-.109-.036-.109-.036h-.581l-.109.036-.182.073-.073.036-.073.073-.073.073-.073.073-.036.073-.036.073-.036.073-.036.109-.036.073-.036.182v.581l.036.145L200.7,49l.073.145.036.073.073.109.073.073.109.109.073.073.109.073.073.036.182.036h.509l.327-.073.109-.036.073-.036.073-.036v-.509L202.552,49h-.836l-.182-.036H201.5l-.036-.036v-.8l.036-.036h.945l.472.036h.109l.254-.036h.218l.036.036v.109Z" transform="translate(-199.5 -46.2)" fill="#033e62"/><path d="M216.643,50.552l-.073.036h-1.163l-.036-.036-.036-.036-.182-.254-.036-.073-.182-.254-.036-.073-.145-.254-.036-.073-.182-.254-.036-.036h-.363l-.036.036v.509l.036.327v.545l-.036.036h-1.163l-.036-.036v-.472l.036-.327V46.373l.036-.036.073-.036h.363l.69.036.4-.036h.109l.4.036h.4l.109.036.073.036.073.036.109.036.073.036.073.036.109.073.073.036.073.073.073.073.073.109.036.073.073.109.036.073.036.073.036.109v.8l-.036.109-.036.073-.036.073-.036.073-.036.073-.036.073-.036.073-.109.109-.073.036-.109.073-.073.036-.073.036h-.109l.036.036.218.291.036.073.218.291.073.073.218.291.073.073.182.218.036.073.036.073ZM214.9,48.3l.145-.036.073-.036.073-.036.073-.073.036-.073.036-.109v-.327l-.036-.073-.036-.073-.036-.073-.073-.036-.073-.036-.145-.036h-.872l-.036.036-.036.036v.981h.109l.291.036h.109Z" transform="translate(-208.031 -46.264)" fill="#033e62"/><path d="M228.679,48.444v.327l-.036.182v.327l-.036.073-.073.109-.036.073-.145.254-.036.073-.073.073-.073.073-.109.109-.073.073-.073.073-.073.036-.109.073-.073.036-.073.036-.073.036-.109.036-.073.036-.182.073-.109.036-.109.036-.109.036H226.1l-.182-.036h-.073l-.073-.036-.327-.109-.109-.036-.109-.036-.182-.073-.073-.036-.073-.036-.109-.145-.073-.073-.073-.073-.073-.073-.145-.145-.073-.073-.073-.073-.036-.073-.036-.109-.073-.254-.036-.109V48.008l.036-.109.036-.109.036-.073.036-.109.036-.145.036-.109.036-.036.036-.073.073-.145.073-.073.036-.036.073-.073.109-.073.073-.073.073-.036.182-.109.073-.036v-.036l.073-.036.109-.036.073-.036.073-.036.073-.036.218-.036h.073l.291-.036h.727l.109.036h.109l.109.036.073.036.073.036.109.036.073.036.182.109.073.036.073.073.109.109.073.073.073.073.036.073.073.109.036.073.036.073.036.073.073.109.036.073.036.073.036.073.036.145.036.182v.218Zm-1.417.727.073-.073.073-.145.036-.073.036-.145V48.19l-.036-.182-.036-.073-.073-.109-.036-.073-.073-.109-.073-.073-.073-.109-.073-.036-.145-.073-.073-.036-.109-.036H226.1l-.145.036-.109.036-.145.073-.073.036-.109.073-.073.073-.073.073-.036.073v.036l-.036.109-.036.073v.654l.036.073v.036l.036.073.036.036.036.073.036.036.073.073.036.036.073.073.109.109.073.036.109.036.073.036.109.036h.581l.145-.036.073-.036.145-.073.073-.036.109-.109.073-.073Z" transform="translate(-215.161 -46.264)" fill="#033e62"/><path d="M242.225,48.517v.472l-.036.145v.109l-.036.145-.036.073-.036.109-.036.073-.036.109-.036.073-.073.109-.073.073-.073.073-.073.073-.109.109-.073.036-.109.073-.073.036-.109.073-.073.036-.145.036-.073.036-.145.036h-.727l-.327-.036h-.145l-.109-.036h-.036l-.109-.036-.145-.073-.073-.036-.073-.073-.145-.145-.073-.073-.073-.109-.036-.073-.145-.109-.036-.073-.036-.073-.036-.109-.036-.073-.036-.073-.036-.073-.036-.145v-2.8l.036-.036h1.054l.036.036V49.1l.036.145.036.073.073.145h.073l.109.109.073.036.145.036.073.036h.254l.145-.036.073-.036.109-.036.073-.036.109-.073.073-.073.073-.109.036-.073.036-.109v-.109l.036-.182V48.7l-.036-.363V46.409l.036-.073.036-.036h.182l.291.036h.581l.036.036V47.9l-.036.363Z" transform="translate(-224.2 -46.264)" fill="#033e62"/><path d="M255.07,47.863v.254l-.036.145v.109L255,48.48l-.036.073-.073.109-.036.073-.073.109-.073.073-.073.073-.073.073-.073.036-.073.036-.145.073-.073.036-.109.036-.073.036-.145.036H252.6v.109l-.036.4v.618h-1.054l-.073-.036-.036-.036v-.872l.036-.291v-.109l-.036-.291v-.908l.036-.327V47.1l.036-.291v-.472l.036-.036h1.272l.4.036h.8l.145.036.109.036.109.036.073.036.073.036.073.073.109.109.073.073.036.036.109.109.073.073.036.036.036.073.036.036.036.073.036.073.036.073v.036l.036.073V47.5l.036.073.036.145v.145Zm-1.744.581h.109l.109-.036h.036l.073-.036.036-.036.073-.073.036-.036.036-.073v-.036l.036-.109v-.291l-.036-.073-.036-.036-.073-.073-.036-.036-.073-.036-.145-.036h-.908v.981l.073.036.291.036Z" transform="translate(-232.54 -46.264)" fill="#033e62"/></g></g></svg>