<svg xmlns="http://www.w3.org/2000/svg" width="100" height="152,38" viewBox="0 0 150.912 229.959"><g transform="translate(-386.799 -204.293)"><g transform="translate(386.799 204.293)"><g transform="translate(0 167.341)"><path d="M402.728,413.024v-1.051a4.4,4.4,0,0,0,1.78-.762,2.072,2.072,0,0,0,.59-1.19,14.6,14.6,0,0,0,.139-2.36V389.107a15.241,15.241,0,0,0-.107-2.155,2.692,2.692,0,0,0-.353-1.052,1.836,1.836,0,0,0-.654-.6,7.238,7.238,0,0,0-1.394-.5v-1.051h11.733a16.866,16.866,0,0,1,5.48.729,6.107,6.107,0,0,1,3.078,2.155,6.23,6.23,0,0,1,1.008,3.679,6.7,6.7,0,0,1-2.6,5.513,13.336,13.336,0,0,1-2.981,1.673v.193a8.807,8.807,0,0,1,4.418,2.714,6.672,6.672,0,0,1,1.5,4.365,8.094,8.094,0,0,1-1.3,4.762,7.259,7.259,0,0,1-3.636,2.67,17.075,17.075,0,0,1-5.663.826ZM413,396.872a7.142,7.142,0,0,0,4.987-1.577,5.887,5.887,0,0,0,1.727-4.58,5.519,5.519,0,0,0-.483-2.455,3.976,3.976,0,0,0-1.33-1.555,5.577,5.577,0,0,0-2.006-.826,12.067,12.067,0,0,0-2.509-.246q-.815,0-2.145.043t-1.995.086v11.111Zm-3.753,14.115q1.565.15,3.5.15a10.811,10.811,0,0,0,4.365-.708,4.507,4.507,0,0,0,2.252-2.092,7.654,7.654,0,0,0,.7-3.464,6.922,6.922,0,0,0-.762-3.432,4.658,4.658,0,0,0-2.348-2.017,11.633,11.633,0,0,0-4.376-.665h-3.324Zm26.514,2.381q-4.462,0-6.811-2.628t-2.348-7.775a13.184,13.184,0,0,1,1.233-5.985,8.28,8.28,0,0,1,3.378-3.636,9.911,9.911,0,0,1,4.891-1.19q4.589,0,6.949,2.67t2.36,7.669a13.757,13.757,0,0,1-1.18,6.005,8.062,8.062,0,0,1-3.347,3.657A10.331,10.331,0,0,1,435.763,413.367Zm-5.105-10.853a13.434,13.434,0,0,0,1.405,6.789,4.431,4.431,0,0,0,4.022,2.37,4.19,4.19,0,0,0,2.445-.7,5.253,5.253,0,0,0,1.641-1.876,9.2,9.2,0,0,0,.911-2.735,18.343,18.343,0,0,0,.279-3.25,16.724,16.724,0,0,0-.7-5.234,6.482,6.482,0,0,0-1.9-3.057,4.236,4.236,0,0,0-2.745-.975,4.407,4.407,0,0,0-3.979,2.252A12.315,12.315,0,0,0,430.658,402.514Zm30.827-5.3h-2.059a6.478,6.478,0,0,0-1.115-2.027,3.561,3.561,0,0,0-1.458-1.04,5.793,5.793,0,0,0-1.995-.3,4.293,4.293,0,0,0-2.735.8,2.648,2.648,0,0,0-1.019,2.2,3,3,0,0,0,.407,1.63,4.116,4.116,0,0,0,1.265,1.2,22.078,22.078,0,0,0,3.025,1.481,21.93,21.93,0,0,1,3.378,1.737,6.376,6.376,0,0,1,1.866,1.844,4.541,4.541,0,0,1,.675,2.509,6.34,6.34,0,0,1-.579,2.854,4.957,4.957,0,0,1-1.63,1.887,7,7,0,0,1-2.5,1.051,14.586,14.586,0,0,1-3.163.322,22.317,22.317,0,0,1-3.5-.268,32.336,32.336,0,0,1-3.3-.7v-4.484h2.1a5.461,5.461,0,0,0,1.716,2.864,4.955,4.955,0,0,0,3.132.891,7.09,7.09,0,0,0,1.512-.161,3.929,3.929,0,0,0,1.32-.536,2.7,2.7,0,0,0,.922-1.018,3.4,3.4,0,0,0,.343-1.61,3.312,3.312,0,0,0-.429-1.78,4.117,4.117,0,0,0-1.33-1.254,24.809,24.809,0,0,0-3.175-1.534,19.685,19.685,0,0,1-3.131-1.587,6.2,6.2,0,0,1-1.856-1.823,4.5,4.5,0,0,1-.675-2.489,5.02,5.02,0,0,1,.954-3.057,5.932,5.932,0,0,1,2.756-1.984,11.845,11.845,0,0,1,4.226-.686,25.922,25.922,0,0,1,2.734.139q1.321.14,3.314.547Zm22.741-4.7h6.113v10.918a28.129,28.129,0,0,0,.193,3.818,5.712,5.712,0,0,0,.58,1.974,3.26,3.26,0,0,0,1.094,1.115,3.617,3.617,0,0,0,1.952.45,3.934,3.934,0,0,0,1.566-.322,6.64,6.64,0,0,0,1.673-1.126,5.394,5.394,0,0,0,1.32-1.6,4.068,4.068,0,0,0,.4-1.845v-8.044q0-1.223-.064-1.845a3.789,3.789,0,0,0-.215-1,2.141,2.141,0,0,0-.353-.611,1.907,1.907,0,0,0-.579-.429,6.276,6.276,0,0,0-1.212-.408v-1.051H502.8v14.65q0,1.652.064,2.382a3.281,3.281,0,0,0,.279,1.158,1.679,1.679,0,0,0,.665.7,5.661,5.661,0,0,0,1.609.5v1.115l-4.912.214H499.2l.129-3.517-.322-.086a14.2,14.2,0,0,1-3.4,2.831,6.632,6.632,0,0,1-3.25.9,6.094,6.094,0,0,1-3.218-.772,4.651,4.651,0,0,1-1.887-2.306,11.885,11.885,0,0,1-.622-4.322v-8.108a14.554,14.554,0,0,0-.139-2.478,2.066,2.066,0,0,0-.537-1.072,4.077,4.077,0,0,0-1.726-.739Zm39.278,16.86a18.115,18.115,0,0,1-2.521,2.252,9.564,9.564,0,0,1-2.521,1.276,9.438,9.438,0,0,1-3.024.462q-4.419,0-6.671-2.649t-2.252-7.818a13.132,13.132,0,0,1,1.148-5.642,8.673,8.673,0,0,1,3.271-3.775,9.9,9.9,0,0,1,8.58-.643,6.2,6.2,0,0,1,2.434,1.876,8.755,8.755,0,0,1,1.416,3,19.822,19.822,0,0,1,.568,4.73H510.42v.386a13.777,13.777,0,0,0,.568,4.258,5.385,5.385,0,0,0,1.866,2.7,5.475,5.475,0,0,0,3.379.976,7.4,7.4,0,0,0,3.164-.655,9.368,9.368,0,0,0,2.8-2.135Zm-3.6-8.709a16.308,16.308,0,0,0-.579-3.786,4.737,4.737,0,0,0-1.352-2.253,3.47,3.47,0,0,0-2.359-.782,4.181,4.181,0,0,0-3.529,1.769,9.516,9.516,0,0,0-1.555,5.052Zm-42.187,21.694a2.79,2.79,0,0,1-.343,1.072,1.911,1.911,0,0,1-.708.655,5.651,5.651,0,0,1-1.491.472v1.051H481.5V392.5l-1.457-.343-1.5,1.308a10.306,10.306,0,0,0-5.255-1.308,10.45,10.45,0,0,0-5.106,1.211,8.294,8.294,0,0,0-3.443,3.669,13.3,13.3,0,0,0-1.233,6.016q0,5.041,1.9,7.679a6.293,6.293,0,0,0,5.438,2.638,6.865,6.865,0,0,0,2.6-.493,9.067,9.067,0,0,0,2.219-1.277,16.91,16.91,0,0,0,2.156-2.091v9.962C477.81,420.413,477.778,421.913,477.714,422.363Zm-.054-15.538a4.4,4.4,0,0,1-.429,1.169,5.179,5.179,0,0,1-.912,1.126,6.724,6.724,0,0,1-1.244.987,4.69,4.69,0,0,1-1.244.525,6.306,6.306,0,0,1-1.533.161,3.845,3.845,0,0,1-3.572-2.146,13.172,13.172,0,0,1-1.191-6.263,11.376,11.376,0,0,1,1.47-6.285,4.765,4.765,0,0,1,4.236-2.231,5.345,5.345,0,0,1,1.973.332,3.586,3.586,0,0,1,1.458,1.094,4.522,4.522,0,0,1,.879,1.856,14.255,14.255,0,0,1,.257,3.089v4.869A8.053,8.053,0,0,1,477.66,406.825Z" transform="translate(-387.874 -383.745)" fill="#963825"/><path d="M417.515,420.152a5.93,5.93,0,0,0-1.361.472,1.978,1.978,0,0,0-.665.59,2.636,2.636,0,0,0-.365,1.062,14.514,14.514,0,0,0-.119,2.188v18.554a16.219,16.219,0,0,0,.1,2.1,2.94,2.94,0,0,0,.322,1.051,1.794,1.794,0,0,0,.665.643,6.027,6.027,0,0,0,1.426.515v1.052H408.57v-1.052a4.52,4.52,0,0,0,1.7-.686,1.986,1.986,0,0,0,.643-1.137,12.6,12.6,0,0,0,.172-2.488V434.8q0-3.239.1-6.553t.226-4.537h-.365l-8.494,21.257h-2.467l-7.894-21.6h-.365q.108,1.308.2,4.74t.1,7.057v7.851a16.23,16.23,0,0,0,.1,2.1,2.94,2.94,0,0,0,.322,1.051,1.8,1.8,0,0,0,.665.643,6.019,6.019,0,0,0,1.427.515v1.052H386.8v-1.052a4.385,4.385,0,0,0,1.78-.761,2.074,2.074,0,0,0,.59-1.191,14.592,14.592,0,0,0,.139-2.359V424.464a15.278,15.278,0,0,0-.107-2.156,2.7,2.7,0,0,0-.353-1.051,1.837,1.837,0,0,0-.655-.6,7.289,7.289,0,0,0-1.394-.5V419.1h7.658l7.529,20.871,8.28-20.871h7.249Zm12.25,28.572q-4.462,0-6.811-2.628t-2.348-7.776a13.182,13.182,0,0,1,1.233-5.984,8.28,8.28,0,0,1,3.378-3.636,9.912,9.912,0,0,1,4.891-1.191q4.589,0,6.949,2.671t2.36,7.668a13.758,13.758,0,0,1-1.18,6.006,8.066,8.066,0,0,1-3.347,3.657A10.339,10.339,0,0,1,429.765,448.724ZM424.66,437.87a13.441,13.441,0,0,0,1.405,6.79,4.432,4.432,0,0,0,4.022,2.369,4.2,4.2,0,0,0,2.445-.7,5.256,5.256,0,0,0,1.641-1.877,9.18,9.18,0,0,0,.911-2.735,18.334,18.334,0,0,0,.279-3.25,16.711,16.711,0,0,0-.7-5.233,6.476,6.476,0,0,0-1.9-3.057,4.232,4.232,0,0,0-2.745-.976,4.406,4.406,0,0,0-3.979,2.253A12.311,12.311,0,0,0,424.66,437.87Zm38.225,10.511h-8.451v-1.052a7.535,7.535,0,0,0,1.2-.45,1.747,1.747,0,0,0,.612-.536,2.768,2.768,0,0,0,.386-1.061,12.4,12.4,0,0,0,.14-2.177v-5.62q0-1.5-.086-2.724a11.364,11.364,0,0,0-.29-2.006,4.17,4.17,0,0,0-.493-1.222,3.134,3.134,0,0,0-.686-.751,3.2,3.2,0,0,0-.912-.493,4.141,4.141,0,0,0-1.351-.183,3.872,3.872,0,0,0-1.587.333,6.485,6.485,0,0,0-1.651,1.148,5.811,5.811,0,0,0-1.308,1.609,3.927,3.927,0,0,0-.408,1.823v8a12.773,12.773,0,0,0,.172,2.564,1.884,1.884,0,0,0,.654,1.094,4.442,4.442,0,0,0,1.577.654v1.052h-8.408v-1.052a7.093,7.093,0,0,0,1.191-.45,1.789,1.789,0,0,0,.6-.536,2.753,2.753,0,0,0,.386-1.051,12.658,12.658,0,0,0,.139-2.209v-9.352q0-1.374-.043-2.209a3.338,3.338,0,0,0-.3-1.341,1.632,1.632,0,0,0-.782-.751,6.22,6.22,0,0,0-1.491-.419v-1.137l5.019-.193h1.309l-.236,3.5.3.086a20.671,20.671,0,0,1,2.563-2.3,8.894,8.894,0,0,1,1.974-1.061,5.934,5.934,0,0,1,2.112-.376,7.329,7.329,0,0,1,2.07.269,4.633,4.633,0,0,1,1.609.825,4.521,4.521,0,0,1,1.148,1.384,6.9,6.9,0,0,1,.676,1.984,15.829,15.829,0,0,1,.225,2.938v8.087a18.864,18.864,0,0,0,.086,2.145,2.749,2.749,0,0,0,.3,1.029,1.761,1.761,0,0,0,.622.612,6.2,6.2,0,0,0,1.416.525Zm26.6-3.068-.322-.086a13.1,13.1,0,0,1-3.507,2.7,7.9,7.9,0,0,1-3.486.794,6.26,6.26,0,0,1-2.874-.633,4.506,4.506,0,0,1-1.909-1.78,5.185,5.185,0,0,1-.666-2.649,5.3,5.3,0,0,1,3.1-4.837q3.1-1.705,9.3-1.984v-1.394a11.5,11.5,0,0,0-.429-3.517,3.462,3.462,0,0,0-1.351-1.888,4.471,4.471,0,0,0-2.467-.6,3.976,3.976,0,0,0-2.691.879,5.377,5.377,0,0,0-1.534,2.639h-2.81v-2.789a30.7,30.7,0,0,1,3.432-1.576,19.725,19.725,0,0,1,2.745-.794,13.479,13.479,0,0,1,2.789-.29,7.355,7.355,0,0,1,3.41.676,4.29,4.29,0,0,1,1.93,2.069,10.5,10.5,0,0,1,.643,4.2v7.465q0,1.588.021,2.242a7.943,7.943,0,0,0,.129,1.211,2.542,2.542,0,0,0,.322.891,1.767,1.767,0,0,0,.633.568,6.416,6.416,0,0,0,1.362.493v1.052h-5.878Zm-.365-6.714a15.092,15.092,0,0,0-6.521,1.159,3.591,3.591,0,0,0-2.166,3.367,3.324,3.324,0,0,0,.493,1.93,2.54,2.54,0,0,0,1.244.976,5.318,5.318,0,0,0,1.78.268,5.085,5.085,0,0,0,2.649-.708,5.286,5.286,0,0,0,1.856-1.8,4.152,4.152,0,0,0,.665-2.166Zm28.553,9.782h-8.451v-1.052a7.571,7.571,0,0,0,1.2-.45,1.756,1.756,0,0,0,.612-.536,2.774,2.774,0,0,0,.386-1.061,12.515,12.515,0,0,0,.139-2.177v-5.62q0-1.5-.086-2.724a11.38,11.38,0,0,0-.289-2.006,4.169,4.169,0,0,0-.493-1.222,3.153,3.153,0,0,0-.686-.751,3.2,3.2,0,0,0-.912-.493,4.141,4.141,0,0,0-1.351-.183,3.869,3.869,0,0,0-1.587.333,6.5,6.5,0,0,0-1.652,1.148,5.828,5.828,0,0,0-1.308,1.609,3.939,3.939,0,0,0-.407,1.823v8a12.847,12.847,0,0,0,.172,2.564,1.89,1.89,0,0,0,.655,1.094,4.434,4.434,0,0,0,1.577.654v1.052h-8.408v-1.052a7.067,7.067,0,0,0,1.19-.45,1.779,1.779,0,0,0,.6-.536,2.723,2.723,0,0,0,.386-1.051,12.533,12.533,0,0,0,.14-2.209v-9.352q0-1.374-.043-2.209a3.354,3.354,0,0,0-.3-1.341,1.63,1.63,0,0,0-.783-.751,6.21,6.21,0,0,0-1.49-.419v-1.137l5.019-.193h1.308l-.236,3.5.3.086a20.678,20.678,0,0,1,2.563-2.3,8.89,8.89,0,0,1,1.973-1.061,5.939,5.939,0,0,1,2.113-.376,7.329,7.329,0,0,1,2.07.269,4.64,4.64,0,0,1,1.608.825,4.533,4.533,0,0,1,1.148,1.384,6.881,6.881,0,0,1,.675,1.984,15.842,15.842,0,0,1,.225,2.938v8.087a18.626,18.626,0,0,0,.086,2.145,2.73,2.73,0,0,0,.3,1.029,1.754,1.754,0,0,0,.622.612,6.159,6.159,0,0,0,1.416.525Zm-5.256-29.3,1.674.729a14.439,14.439,0,0,1-1.555,2.714,4.652,4.652,0,0,1-1.416,1.308,3.256,3.256,0,0,1-1.534.354,3.8,3.8,0,0,1-1.008-.118,4.033,4.033,0,0,1-.848-.343q-.418-.225-1.3-.825-.579-.386-.912-.6a3.743,3.743,0,0,0-.7-.354,2.13,2.13,0,0,0-.772-.139,1.85,1.85,0,0,0-.933.214,2.56,2.56,0,0,0-.762.751,8.706,8.706,0,0,0-.794,1.416l-1.673-.729a17.715,17.715,0,0,1,1.673-2.864,4.3,4.3,0,0,1,1.319-1.158,3.45,3.45,0,0,1,1.619-.354,3.409,3.409,0,0,1,.933.118,3.685,3.685,0,0,1,.772.31q.354.193,1.212.772.621.429.987.665a3.7,3.7,0,0,0,.751.376,2.571,2.571,0,0,0,.879.139,1.7,1.7,0,0,0,1.222-.525A6.605,6.605,0,0,0,512.422,419.08Zm19.52,26.233-.322-.086a13.113,13.113,0,0,1-3.507,2.7,7.9,7.9,0,0,1-3.486.794,6.263,6.263,0,0,1-2.875-.633,4.516,4.516,0,0,1-1.909-1.78,5.194,5.194,0,0,1-.665-2.649,5.3,5.3,0,0,1,3.1-4.837q3.1-1.705,9.3-1.984v-1.394a11.494,11.494,0,0,0-.43-3.517,3.452,3.452,0,0,0-1.351-1.888,4.467,4.467,0,0,0-2.466-.6,3.98,3.98,0,0,0-2.692.879,5.384,5.384,0,0,0-1.533,2.639h-2.811v-2.789a30.61,30.61,0,0,1,3.433-1.576,19.685,19.685,0,0,1,2.745-.794,13.464,13.464,0,0,1,2.788-.29,7.359,7.359,0,0,1,3.411.676,4.29,4.29,0,0,1,1.93,2.069,10.5,10.5,0,0,1,.643,4.2v7.465q0,1.588.021,2.242a7.718,7.718,0,0,0,.129,1.211,2.538,2.538,0,0,0,.322.891,1.757,1.757,0,0,0,.633.568,6.4,6.4,0,0,0,1.361.493v1.052h-5.877Zm-.365-6.714a15.092,15.092,0,0,0-6.521,1.159,3.591,3.591,0,0,0-2.166,3.367,3.325,3.325,0,0,0,.493,1.93,2.537,2.537,0,0,0,1.244.976,5.314,5.314,0,0,0,1.78.268,5.085,5.085,0,0,0,2.649-.708,5.275,5.275,0,0,0,1.855-1.8,4.145,4.145,0,0,0,.666-2.166Zm-55.8,6.182a6.065,6.065,0,0,1-1.48,1.018,3.726,3.726,0,0,1-1.609.354,3.466,3.466,0,0,1-1.544-.3,2.878,2.878,0,0,1-1.072-1,4.573,4.573,0,0,1-.643-1.93,25.17,25.17,0,0,1-.172-3.314V434.3h0v-6.281h5.858V426.6a27.662,27.662,0,0,1-4.176-.571,3.9,3.9,0,0,1-1.488-1.049,4.68,4.68,0,0,1-.843-1.61c-.205-.645-.42-2.1-.644-3.335h-2.4v13.71h0v8.222q0,3.5,1.351,5.137a5.026,5.026,0,0,0,4.118,1.641,6.363,6.363,0,0,0,2.821-.665,11.555,11.555,0,0,0,2.885-2.145Z" transform="translate(-386.799 -386.13)" fill="#391700"/></g><g transform="translate(7.173)"><path d="M515.668,223.963q-17.379-19.671-51.188-19.67-20.223,0-36.022,8.768t-24.883,26.78q-9.084,18.01-9.084,44.079,0,37.916,17.3,57.27t50.161,19.353q21.8,0,37.759-8.926t24.646-26.937q8.689-18.009,8.689-44.236Q533.046,243.632,515.668,223.963Zm2.418,99.089q-7.79,17.317-22.1,25.9t-33.85,8.583q-29.461,0-44.969-18.608t-15.51-55.066q0-25.063,8.145-42.381t22.307-25.747q14.164-8.43,32.293-8.431,30.31,0,45.89,18.912t15.579,54.306Q525.875,305.735,518.086,323.053Z" transform="translate(-394.491 -204.293)" fill="#963825"/><path d="M467.457,362.4c-5.131-20.8-8.011-33.071-8.332-35.485a16.536,16.536,0,0,0-1.293-3.416l-1.319-.243-.446.089-1.016-.051c-.253.015-.514.022-.753.022a17.3,17.3,0,0,1-1.967-.109c-4.215-.667-8.241-1.636-11.274-2.4a107.133,107.133,0,0,0-12.974-.779c-10.231,0-18.97,1.3-26.692,3.958-.562-1.516-1.075-3.042-1.528-4.546a132.309,132.309,0,0,1,19.752-4.028l.106-1.025c-3.327-1.123-6.191-2.091-9.064-3.1l-.091-.033-1.924.041-2.658-.02-2.619-.212-.129-2.322s-4.014-1.438-6.233-2.247c-.139-.919-.268-1.838-.382-2.745q3.407,1.148,6.8,2.284l2.818.946,5.341,1.761,2.023-.1a114.139,114.139,0,0,1,16.733,1.232l.294-1.006a154.455,154.455,0,0,0-26.067-8.932l.421-2.27a138.17,138.17,0,0,1,26.571,8.552c2.606,1.164,4.854,2.238,6.868,3.281l.6-.864c-.425-.38-.858-.756-1.293-1.133-.46-.4-.921-.8-1.377-1.208a97.834,97.834,0,0,0-10.288-5.755c-10.893-5.189-20.845-8.314-30.409-9.546-.022-.8-.034-1.609-.042-2.422,8.939.875,18.214,3.469,28.33,7.922l.567-.876-.357-.324-.048-.027a52.155,52.155,0,0,0-13.9-5.973l.412-2.266a36.9,36.9,0,0,1,3.988,1.072l.52-.9q-1.828-1.638-3.656-3.345l1.286-1.763,12.33,10.769.047.027a104.351,104.351,0,0,1,10.981,7.234c3.752,2.8,7.726,6.071,12.146,10,.775.532,1.5,1.044,2.208,1.57l.795-.652c-2.66-5.547-5.34-10.564-8.193-15.342-.459-.771-.946-1.535-1.435-2.3l-.6-.946-.991-1.582-.074-.057A172.564,172.564,0,0,0,420.8,277.91l.919-2.03c4.052,2.229,7.785,4.487,11.4,6.894l.714-.759a88.06,88.06,0,0,0-7.63-8.8l1.348-1.723c1.37,1.307,2.772,2.746,4.272,4.385l.394.431.934-1.043a118.551,118.551,0,0,1,13.362,17.946l.06.1.092.063a13.307,13.307,0,0,1,1.8,1.43c.5.487,1.017.994,1.491,1.5l.9-.5a136.133,136.133,0,0,0-7.732-19.87l1.765-1.126a111.706,111.706,0,0,1,8.6,20.2c.675,2.42,1.3,5.017,1.9,7.919l.037.182.143.118a.95.95,0,0,1,.1.1,1.846,1.846,0,0,0,.152.154l.88.784v-1.481l-.034-.891c-.069-1.88-.141-3.824-.282-5.716a89.49,89.49,0,0,0-5.235-23.359l1.813-.917c.732,1.744,1.4,3.529,1.98,5.316l1.029-.222c-.47-4.255-.94-7.778-1.471-11.031l1.962-.435c.928,5.2,1.645,10.374,2.129,15.382l1.055-.036c.259-9.351-.57-16.788-2.605-23.344l1.87-.748c3.482,10.8,3.267,22.362,2.591,32.281a173.4,173.4,0,0,1-2.2,17.682l-.008.927,1.029.172c1.928-5.616,3.3-10.267,4.464-15.08a135.544,135.544,0,0,0,3.694-26.148l1.952.05c-.019,3.047-.2,6.349-.533,9.821l1.043.163a183.316,183.316,0,0,0,3.545-23.5l2.49.187.057-.507a90.505,90.505,0,0,0,.534-11.309l1.986-.074c.212,9.456-1.033,19.334-3.908,31.029l.976.383c4.738-8.586,9.821-16.852,15.112-24.58l1.612,1.348c-.048.075-.1.145-.144.214l.847.631c1.2-1.512,2.31-2.825,3.369-3.991l1.415,1.6c-1,1.108-1.968,2.305-2.8,3.35l-.3.379,2.236,2.123c-.922,1.246-1.962,2.661-2.977,4.109l-.265.376,2.039,1.9c-6.239,8.7-13.429,18.857-20.221,29.643-2.312,3.559-4.523,7.174-7.131,11.5l-.828,1.7c-1.147,2.187-2.418,4.517-3.88,7.11l.847.621a223.108,223.108,0,0,0,16.029-19.189,180.517,180.517,0,0,0,19.383-32.316l1.8.967a163.489,163.489,0,0,1-14.9,26.893l.861.615a151.649,151.649,0,0,0,17.223-28.742l1.811.971a148.76,148.76,0,0,1-20.954,34.41c-1.146,1.423-2.358,2.882-3.7,4.458l.78.714c.824-.84,1.675-1.707,2.521-2.638a175,175,0,0,0,23.042-30.464l1.693,1.219-.246.436c-.576,1.024-1.151,2.043-1.752,3.039l-.27.446,2.615,1.629c-.152.29-.3.581-.444.875l-.392.778,1.217,1.32c-1.116,1.326-2.379,2.747-3.94,4.439-2.226,2.5-2.226,2.5-2.226,2.718v1.279l.9-.906q2.954-2.967,5.93-5.985l1.412,1.65a293.313,293.313,0,0,1-25.83,25.471c-3.148,2.646-5.945,4.874-8.539,6.8l.53.907c.473-.211.945-.428,1.417-.645.418-.193.836-.386,1.256-.573,3.536-1.829,7.32-4.046,11.27-6.6a191.045,191.045,0,0,0,25.728-20.5l1.341,1.7c-1.551,1.54-2.974,2.912-4.343,4.185l.662.822.97-.674c1.6-1.114,3.215-2.232,4.808-3.372l1.138,1.9a265.877,265.877,0,0,1-32.283,20.951l-1.8.921c-2.3,1.216-4.557,2.4-6.834,3.5-2.253,1.2-4.339,2.205-6.4,3.1l.3,1.006a56.811,56.811,0,0,0,6.476-1.578c7.193-1.895,14.6-5.259,23.247-10.572l1.076,1.974a81.031,81.031,0,0,1-23.635,11.6,63.389,63.389,0,0,1-16.028,2.281,41.872,41.872,0,0,1-5.111-.3l-.144-.018-.133.058c-.567.249-1.128.493-1.648.7l-.39.157.066.415a3.572,3.572,0,0,0,.422,1.139l9.276,37.927C469.694,362.266,468.575,362.34,467.457,362.4ZM424.8,313.04l5.245,1.629,1.788-.1c.987,0,2.017.019,2.988.056l.128-1.046c-1.467-.3-2.85-.565-4.231-.8-1.809-.308-3.729-.565-5.708-.767Zm83.376-40.228c-1.626,2.693-3.482,5.548-5.674,8.727l.852.628a3.542,3.542,0,0,1,.3-.323c.075-.076.15-.152.226-.235l.182-.258c1.4-2.07,3.314-4.906,5.035-8.009Z" transform="translate(-394.567 -206.8)" fill="#963825"/></g></g></g></svg>