<svg xmlns="http://www.w3.org/2000/svg" width="167.06" height="103.17" viewBox="0 0 167.06 103.17"><g transform="translate(-70.288 -237.387)"><g transform="translate(70.288 309.988)"><path d="M80.411,328.161a4.378,4.378,0,0,1-1.441,3.362,5.209,5.209,0,0,1-3.677,1.329,11.323,11.323,0,0,1-3.754-.916.93.93,0,0,0-.313-.067q-.38,0-.582.8c-.045.165-.1.246-.178.246-.12,0-.179-.105-.179-.313a8.042,8.042,0,0,1,.112-1.028,9.9,9.9,0,0,0,.089-1.408c0-.432-.008-.774-.022-1.028q-.045-.76-.045-.894,0-.357.223-.357c.148,0,.283.32.4.96a4.243,4.243,0,0,0,1.408,2.57,3.914,3.914,0,0,0,2.547.983,2.89,2.89,0,0,0,2.033-.76,2.424,2.424,0,0,0,.828-1.854,2.075,2.075,0,0,0-.536-1.5,15.757,15.757,0,0,0-2.592-1.586,9.067,9.067,0,0,1-3.307-2.592,4.886,4.886,0,0,1-.8-2.815,4.157,4.157,0,0,1,1.362-3.185,4.871,4.871,0,0,1,3.442-1.263,6.186,6.186,0,0,1,2.391.537,1.868,1.868,0,0,0,.6.179q.335,0,.446-.582c.031-.134.1-.2.2-.2.148,0,.223.1.223.291q0,.111-.045.625c-.03.343-.044.626-.044.849a18.258,18.258,0,0,0,.089,1.966.589.589,0,0,1,.023.179c0,.134-.06.2-.179.2q-.2,0-.4-.715a4.588,4.588,0,0,0-.7-1.419,3.63,3.63,0,0,0-1.017-1.017,2.984,2.984,0,0,0-1.564-.4,3.047,3.047,0,0,0-1.989.6,2.023,2.023,0,0,0-.737,1.653,2.251,2.251,0,0,0,.692,1.621,12.792,12.792,0,0,0,2.66,1.8,15.293,15.293,0,0,1,3.2,2.145A4.144,4.144,0,0,1,80.411,328.161Z" transform="translate(-70.288 -316.786)" fill="#c1a458"/><path d="M95.961,328.669q0,.044-.022,2.077-.023,1.073-.035,1.543c-.007.313-.01.461-.01.446q-5.9-.267-10.324-.156H83.692c-.269,0-.4-.056-.4-.169,0-.083.034-.133.1-.147s.294-.036.681-.063q1.051-.067,1.139-.6a4.224,4.224,0,0,0,.045-.647V319.637c0-.893-.007-1.383-.022-1.473a.594.594,0,0,0-.224-.491,1.688,1.688,0,0,0-.827-.134q-.693,0-.693-.2c0-.148.2-.223.615-.223s.978-.007,1.709-.022q4.112-.089,6.727-.045H94.06c.327,0,.731-.023,1.207-.068l.2,2.436q.111,1.163.112,1.431a.2.2,0,0,1-.224.223c-.149,0-.247-.194-.292-.582a3.021,3.021,0,0,0-1.244-2.246,5.539,5.539,0,0,0-3.082-.7q-.627,0-2.152.067V324.2a7.69,7.69,0,0,0,3.11-.346q.641-.37.865-1.911.111-.826.336-.827c.135,0,.2.134.2.4s-.022.82-.067,1.654c-.016.283-.023.664-.023,1.14q0,1.922.045,2.905a2.012,2.012,0,0,1,.023.335c0,.178-.068.269-.2.269a.2.2,0,0,1-.2-.1,4.574,4.574,0,0,1-.134-.726,3.939,3.939,0,0,0-.618-1.978,2.761,2.761,0,0,0-1.808-.391H88.586v7.508h1.435q2.465-.044,3-.112a3.173,3.173,0,0,0,1.3-.491,2.47,2.47,0,0,0,.774-.961,10.718,10.718,0,0,0,.46-1.9c.044-.224.118-.336.224-.336S95.961,328.445,95.961,328.669Z" transform="translate(-71.401 -316.803)" fill="#c1a458"/><path d="M113.784,317.377c0,.074-.054.118-.164.133s-.5.037-1.17.067q-.591.023-.678.246a5.308,5.308,0,0,0-.065,1.43v13.162c0,.252-.053.379-.156.379a25.693,25.693,0,0,1-3.252-3.7q-3.005-3.7-6.6-8.459v10.838q0,.469.294.581a3.114,3.114,0,0,0,1.105.179q.746,0,.835.112a.127.127,0,0,1,.023.09c0,.12-.112.179-.336.179a2.118,2.118,0,0,1-.335-.023q-1.341-.044-1.676-.045-.782,0-2.056.045c-.417.015-.6.023-.537.023-.223,0-.335-.059-.335-.179q0-.156.983-.223,1.14-.089,1.318-.358a5.565,5.565,0,0,0,.112-1.607v-9.17q0-1.406-.044-1.7a1.961,1.961,0,0,0-.783-1.429,3.744,3.744,0,0,0-1.832-.379c-.238-.016-.358-.086-.358-.212,0-.142.1-.213.313-.213.09,0,.411.016.961.045q.4.023,1.207.023,1.653,0,2.681-.068l7.844,10.1v-8.869q0-.538-.178-.683a1.408,1.408,0,0,0-.76-.168l-.961-.045c-.178-.015-.269-.068-.269-.156,0-.12.135-.18.4-.18h1.452q2.258,0,2.637.023C113.658,317.189,113.784,317.257,113.784,317.377Z" transform="translate(-72.667 -316.817)" fill="#c1a458"/><path d="M123.605,332.426c0,.127-.1.191-.29.191a1.8,1.8,0,0,1-.291-.023q-1.34-.067-2.3-.067-1.007,0-2.95.067c-.433.015-.753.023-.961.023-.224,0-.336-.068-.336-.2a.129.129,0,0,1,.123-.134c.081-.015.369-.03.86-.045q.693-.134.8-.413a7.618,7.618,0,0,0,.112-1.8V318.449c-.014-.268-.022-.394-.022-.38q0-.557-1.117-.558c-.417,0-.626-.052-.626-.156s.031-.165.09-.179a3.967,3.967,0,0,1,.582-.023h5.878c.193,0,.29.058.29.17a.146.146,0,0,1-.1.158,4.356,4.356,0,0,1-.682.052q-.693.045-.849.291l-.067.423v12.607q0,.96.212,1.138a3.408,3.408,0,0,0,1.441.245C123.539,332.253,123.605,332.315,123.605,332.426Z" transform="translate(-74.243 -316.817)" fill="#c1a458"/><path d="M140.932,324.861a8.143,8.143,0,0,1-2.09,5.665,6.773,6.773,0,0,1-10.223-.033,8.134,8.134,0,0,1-2.122-5.655,8.028,8.028,0,0,1,2.111-5.676,6.852,6.852,0,0,1,5.24-2.28,6.479,6.479,0,0,1,5.05,2.291A8.257,8.257,0,0,1,140.932,324.861Zm-3.933.347a15.5,15.5,0,0,0-1.051-6.56,2.3,2.3,0,0,0-2.19-1.383q-1.52,0-2.424,1.941a12.435,12.435,0,0,0-.906,5.2q0,4.732,1.609,7.074a2.208,2.208,0,0,0,1.944.982,2.112,2.112,0,0,0,2.078-1.405A15.083,15.083,0,0,0,137,325.208Z" transform="translate(-75.101 -316.794)" fill="#c1a458"/><path d="M158.743,331.721q0,1.252-1.631,1.251a4.3,4.3,0,0,1-3.284-1.3,3.732,3.732,0,0,1-1.1-2.151l-.224-1.837a4.8,4.8,0,0,0-.815-2.442,2.324,2.324,0,0,0-1.911-.672v5.087q0,1.771.022,1.9a.532.532,0,0,0,.314.528,3.208,3.208,0,0,0,1.184.145c.358,0,.537.068.537.2s-.09.179-.269.179h-6.748c-.208,0-.314-.053-.314-.16s.305-.193.916-.22q.76-.045.894-.358a3.579,3.579,0,0,0,.067-.942V319.392a11,11,0,0,0-.045-1.378.463.463,0,0,0-.29-.326,2.766,2.766,0,0,0-1.006-.134c-.327,0-.492-.068-.492-.2,0-.1.067-.167.2-.19a9.624,9.624,0,0,1,1.073-.034h4.491a12.36,12.36,0,0,1,4.268.492,3.221,3.221,0,0,1,1.429,1.161,2.974,2.974,0,0,1,.537,1.721,3.35,3.35,0,0,1-2.235,3.174,10.231,10.231,0,0,1-2.9.671l-.022.133a5.244,5.244,0,0,1,3.53,1.285,5.9,5.9,0,0,1,1.319,3.653,5.905,5.905,0,0,0,.559,2.515,1.033,1.033,0,0,0,.782.5c.223,0,.336-.059.336-.178,0-.06-.086-.142-.257-.247a.493.493,0,0,1-.257-.446q0-.6.67-.6T158.743,331.721Zm-5.654-11.285q0-2.882-2.28-2.882c-.491,0-.8.165-.916.491a13.277,13.277,0,0,0-.112,2.436v3.71a3.138,3.138,0,0,0,2.526-.871A4.334,4.334,0,0,0,153.089,320.435Z" transform="translate(-76.643 -316.815)" fill="#c1a458"/><path d="M181.488,328.161a4.374,4.374,0,0,1-1.441,3.362,5.21,5.21,0,0,1-3.677,1.329,11.323,11.323,0,0,1-3.754-.916.93.93,0,0,0-.313-.067q-.38,0-.582.8c-.045.165-.1.246-.178.246-.12,0-.179-.105-.179-.313a8.043,8.043,0,0,1,.112-1.028,9.9,9.9,0,0,0,.089-1.408q0-.647-.022-1.028-.045-.76-.045-.894,0-.357.223-.357c.148,0,.283.32.4.96a4.243,4.243,0,0,0,1.408,2.57,3.914,3.914,0,0,0,2.547.983,2.894,2.894,0,0,0,2.034-.76,2.426,2.426,0,0,0,.827-1.854,2.071,2.071,0,0,0-.536-1.5,15.755,15.755,0,0,0-2.592-1.586,9.075,9.075,0,0,1-3.307-2.592,4.886,4.886,0,0,1-.8-2.815,4.157,4.157,0,0,1,1.362-3.185,4.871,4.871,0,0,1,3.442-1.263,6.186,6.186,0,0,1,2.391.537,1.874,1.874,0,0,0,.6.179q.335,0,.446-.582c.031-.134.1-.2.2-.2.148,0,.223.1.223.291q0,.111-.045.625c-.03.343-.044.626-.044.849a18.256,18.256,0,0,0,.089,1.966.589.589,0,0,1,.023.179c0,.134-.06.2-.179.2q-.2,0-.4-.715a4.587,4.587,0,0,0-.7-1.419,3.63,3.63,0,0,0-1.017-1.017,2.982,2.982,0,0,0-1.565-.4,3.047,3.047,0,0,0-1.989.6,2.023,2.023,0,0,0-.737,1.653,2.248,2.248,0,0,0,.693,1.621,12.753,12.753,0,0,0,2.659,1.8,15.241,15.241,0,0,1,3.2,2.145A4.144,4.144,0,0,1,181.488,328.161Z" transform="translate(-78.942 -316.786)" fill="#c1a458"/><path d="M198.353,317.293c0,.113-.253.176-.76.191q-.937.022-1.139.314a.818.818,0,0,0-.089.381v9.494q0,5.3-5.051,5.3a5.14,5.14,0,0,1-4.022-1.586q-1.071-1.185-1.073-4.2V318.6q0-.715-.223-.871a3.99,3.99,0,0,0-1.408-.245c-.164-.016-.246-.075-.246-.179q0-.2.4-.2h1.9q1.965.022,2.9,0H191c.253,0,.379.074.379.224,0,.134-.23.2-.692.2q-.983,0-1.051.358a2.691,2.691,0,0,0-.045.471v8.37a23.052,23.052,0,0,0,.068,2.3,3.356,3.356,0,0,0,.827,2.1,2.971,2.971,0,0,0,2.168.806,2.576,2.576,0,0,0,2.234-.983q.872-1.184.872-4.246v-8.268a.786.786,0,0,0-.332-.76,1.868,1.868,0,0,0-.861-.134q-.8-.023-.8-.268c0-.12.1-.179.313-.179s.55.011.983.034.76.033.983.033c.016,0,.142-.023.38-.067h1.229Q198.353,317.1,198.353,317.293Z" transform="translate(-80.053 -316.813)" fill="#c1a458"/><path d="M208.04,332.426c0,.127-.1.191-.29.191a1.785,1.785,0,0,1-.29-.023q-1.341-.067-2.3-.067-1.005,0-2.949.067c-.433.015-.753.023-.961.023-.224,0-.336-.068-.336-.2a.128.128,0,0,1,.123-.134c.081-.015.369-.03.86-.045q.693-.134.8-.413a7.618,7.618,0,0,0,.112-1.8V318.449c-.015-.268-.023-.394-.023-.38q0-.557-1.116-.558c-.417,0-.626-.052-.626-.156s.03-.165.09-.179a3.95,3.95,0,0,1,.581-.023h5.878c.193,0,.291.058.291.17a.147.147,0,0,1-.1.158,4.33,4.33,0,0,1-.682.052q-.693.045-.849.291l-.067.423v12.607q0,.96.213,1.138a3.4,3.4,0,0,0,1.441.245C207.973,332.253,208.04,332.315,208.04,332.426Z" transform="translate(-81.472 -316.817)" fill="#c1a458"/><path d="M223.379,321.286c0,.119-.053.177-.156.177-.165,0-.313-.286-.448-.86a4.387,4.387,0,0,0-1.116-2.32,3.446,3.446,0,0,0-2.279-.618h-1.052v13.586q.023.56.316.715a5.565,5.565,0,0,0,1.581.269c.165.015.249.081.249.2q0,.224-.358.223-.067,0-.335-.022c-.223-.016-.41-.022-.559-.022l-2.3-.068-3.8.112c-.208,0-.313-.059-.313-.179,0-.09.029-.142.09-.156a7.064,7.064,0,0,1,.737-.046q1.229-.044,1.319-.582.045-.292.046-4.551v-9.48h-.582a4.156,4.156,0,0,0-2.6.656,3.529,3.529,0,0,0-1.061,2.323c-.1.652-.239.977-.4.977-.134,0-.2-.09-.2-.268q0-.178.09-1.229.177-2.189.223-2.995h1.967l1.553.034q1.485.034,3.788.033,1.274,0,2.279-.016t1.832-.017q.738,0,1.118-.034.066,1.447.335,3.69C223.364,321.071,223.379,321.226,223.379,321.286Z" transform="translate(-82.263 -316.815)" fill="#c1a458"/><path d="M238.486,328.669q0,.044-.022,2.077-.023,1.073-.034,1.543c-.008.313-.011.461-.011.446q-5.9-.267-10.324-.156h-1.877c-.269,0-.4-.056-.4-.169,0-.083.034-.133.1-.147s.294-.036.681-.063q1.051-.067,1.139-.6a4.111,4.111,0,0,0,.045-.647V319.637c0-.893-.007-1.383-.022-1.473a.6.6,0,0,0-.223-.491,1.7,1.7,0,0,0-.828-.134c-.461,0-.692-.067-.692-.2s.2-.223.614-.223.979-.007,1.71-.022q4.112-.089,6.726-.045h1.519q.492,0,1.208-.068l.2,2.436q.111,1.163.112,1.431a.2.2,0,0,1-.224.223q-.224,0-.291-.582a3.025,3.025,0,0,0-1.245-2.246,5.534,5.534,0,0,0-3.082-.7q-.627,0-2.152.067V324.2a7.687,7.687,0,0,0,3.11-.346q.641-.37.866-1.911.111-.826.336-.827.2,0,.2.4t-.067,1.654c-.015.283-.022.664-.022,1.14q0,1.922.045,2.905a2.129,2.129,0,0,1,.022.335c0,.178-.067.269-.2.269a.2.2,0,0,1-.2-.1,4.523,4.523,0,0,1-.135-.726,3.939,3.939,0,0,0-.618-1.978,2.759,2.759,0,0,0-1.807-.391h-1.528v7.508h1.435q2.465-.044,3-.112a3.168,3.168,0,0,0,1.3-.491,2.462,2.462,0,0,0,.774-.961,10.717,10.717,0,0,0,.46-1.9c.045-.224.119-.336.224-.336S238.486,328.445,238.486,328.669Z" transform="translate(-83.604 -316.803)" fill="#c1a458"/><path d="M252.043,328.161a4.377,4.377,0,0,1-1.441,3.362,5.209,5.209,0,0,1-3.677,1.329,11.323,11.323,0,0,1-3.754-.916.934.934,0,0,0-.313-.067q-.381,0-.582.8c-.045.165-.1.246-.178.246-.12,0-.18-.105-.18-.313a8.044,8.044,0,0,1,.112-1.028,9.755,9.755,0,0,0,.09-1.408c0-.432-.008-.774-.022-1.028-.031-.507-.045-.8-.045-.894q0-.357.223-.357c.148,0,.283.32.4.96a4.253,4.253,0,0,0,1.408,2.57,3.917,3.917,0,0,0,2.548.983,2.892,2.892,0,0,0,2.033-.76,2.424,2.424,0,0,0,.828-1.854,2.075,2.075,0,0,0-.536-1.5,15.8,15.8,0,0,0-2.592-1.586,9.071,9.071,0,0,1-3.308-2.592,4.892,4.892,0,0,1-.8-2.815,4.157,4.157,0,0,1,1.362-3.185,4.87,4.87,0,0,1,3.441-1.263,6.187,6.187,0,0,1,2.392.537,1.868,1.868,0,0,0,.6.179q.335,0,.446-.582c.03-.134.1-.2.2-.2.148,0,.223.1.223.291,0,.074-.016.283-.045.625s-.045.626-.045.849a18.233,18.233,0,0,0,.09,1.966.592.592,0,0,1,.022.179c0,.134-.059.2-.178.2q-.2,0-.4-.715a4.609,4.609,0,0,0-.7-1.419,3.63,3.63,0,0,0-1.017-1.017,2.984,2.984,0,0,0-1.564-.4,3.047,3.047,0,0,0-1.989.6,2.024,2.024,0,0,0-.738,1.653,2.248,2.248,0,0,0,.693,1.621,12.8,12.8,0,0,0,2.659,1.8,15.281,15.281,0,0,1,3.2,2.145A4.144,4.144,0,0,1,252.043,328.161Z" transform="translate(-84.983 -316.786)" fill="#c1a458"/></g><g transform="translate(120.505 333.454)"><path d="M130.14,342.632a3.268,3.268,0,0,1,1.067.507l-.265.541a3.55,3.55,0,0,0-1.987-.6,3.041,3.041,0,0,0-2.194.811,2.816,2.816,0,0,0-.846,2.13,2.787,2.787,0,0,0,.831,2.095,3.318,3.318,0,0,0,4,.256v-1.9h-2.007v-.581h2.637v2.754a3.294,3.294,0,0,1-1.151.664,4.058,4.058,0,0,1-1.348.241,3.656,3.656,0,0,1-2.656-.983,3.747,3.747,0,0,1,.005-5.131,3.63,3.63,0,0,1,2.641-.988A4.626,4.626,0,0,1,130.14,342.632Z" transform="translate(-125.207 -342.45)" fill="#c1a458"/><path d="M140.062,346.945a2.528,2.528,0,0,1-.738,1.9,2.978,2.978,0,0,1-3.865,0,2.528,2.528,0,0,1-.739-1.9v-4.377h.689v4.377a1.93,1.93,0,0,0,.55,1.446,1.961,1.961,0,0,0,1.436.541,1.87,1.87,0,0,0,1.977-1.987v-4.377h.689Z" transform="translate(-126.022 -342.46)" fill="#c1a458"/><path d="M148.937,349.454h-.718l-.8-2.016h-3.275l-.778,2.016h-.728l2.726-6.886h.836Zm-4.564-2.587H147.2l-1.407-3.63Z" transform="translate(-126.7 -342.46)" fill="#c1a458"/><path d="M156.238,342.617l-2.607,3.512v3.325h-.689v-3.325l-2.607-3.512v-.049h.767l2.184,2.962,2.184-2.962h.767Z" transform="translate(-127.359 -342.46)" fill="#c1a458"/><path d="M166.677,349.454h-.708l-.522-5.882-2.527,5.794h-.561l-2.518-5.794-.531,5.882H158.6l.649-6.886h.817l2.578,5.9,2.568-5.9h.826Z" transform="translate(-128.066 -342.46)" fill="#c1a458"/><path d="M175.745,349.454h-.718l-.8-2.016h-3.275l-.777,2.016h-.728l2.725-6.886h.836Zm-4.564-2.587H174l-1.406-3.63Z" transform="translate(-128.995 -342.46)" fill="#c1a458"/><path d="M181.347,342.568a1.85,1.85,0,0,1,1.958,1.958,1.839,1.839,0,0,1-1.821,1.927h-.117l1.986,2.942v.059h-.727l-1.968-3h-1.3v3h-.689v-6.886Zm-1.987.581v2.725h1.987a1.171,1.171,0,0,0,.9-.374,1.381,1.381,0,0,0,.345-.974,1.43,1.43,0,0,0-.345-1,1.165,1.165,0,0,0-.9-.379Z" transform="translate(-129.785 -342.46)" fill="#c1a458"/><path d="M191.78,349.454h-.719l-.8-2.016H186.99l-.777,2.016h-.728l2.725-6.886h.836Zm-4.565-2.587h2.823l-1.406-3.63Z" transform="translate(-130.368 -342.46)" fill="#c1a458"/><path d="M195.4,348.874h3.138v.581h-3.827v-6.886h.689Z" transform="translate(-131.158 -342.46)" fill="#c1a458"/></g><g transform="translate(122.641 237.387)"><g transform="translate(0.001 12.069)"><path d="M168.685,288.819H148.776c-11.581,0-20.788-18.1-21.175-18.874a.538.538,0,0,1,0-.482c.387-.771,9.595-18.876,21.175-18.876h19.91c11.579,0,20.787,18.1,21.173,18.876a.538.538,0,0,1,0,.482C189.472,270.714,180.265,288.819,168.685,288.819Zm-40-19.116c1.139,2.162,9.862,18.039,20.088,18.039h19.909c10.23,0,18.948-15.878,20.086-18.04-1.139-2.163-9.862-18.041-20.085-18.041h-19.91C138.55,251.662,129.827,267.54,128.688,269.7Z" transform="translate(-127.544 -250.586)" fill="#c1a458"/></g><g transform="translate(12.071)"><path d="M159.86,299.759a.531.531,0,0,1-.241-.057c-.771-.387-18.875-9.595-18.875-21.175V258.619c0-11.582,18.1-20.788,18.875-21.175a.54.54,0,0,1,.483,0c.77.387,18.875,9.595,18.876,21.174v19.908c0,11.582-18.106,20.789-18.876,21.176A.531.531,0,0,1,159.86,299.759Zm0-61.227c-2.162,1.139-18.04,9.862-18.04,20.087v19.908c0,10.231,15.878,18.949,18.04,20.088,2.162-1.139,18.04-9.863,18.04-20.089V258.618C177.9,248.393,162.022,239.671,159.86,238.532Z" transform="translate(-140.744 -237.387)" fill="#c1a458"/></g><g transform="translate(0 30.647)"><path d="M128.082,271.981a.538.538,0,1,1,0-1.076h12.07a.538.538,0,1,1,0,1.076Z" transform="translate(-127.543 -270.904)" fill="#c1a458"/></g><g transform="translate(49.226 30.647)"><path d="M193.986,271.98h-12.07a.538.538,0,1,1,0-1.076h12.07a.538.538,0,1,1,0,1.076Z" transform="translate(-181.378 -270.904)" fill="#c1a458"/></g><g transform="translate(30.648 0)"><path d="M161.6,250.532a.538.538,0,0,1-.539-.538V237.926a.539.539,0,0,1,1.077,0v12.069A.538.538,0,0,1,161.6,250.532Z" transform="translate(-161.061 -237.387)" fill="#c1a458"/></g><g transform="translate(30.648 49.225)"><path d="M161.6,304.368a.538.538,0,0,1-.539-.538V291.76a.539.539,0,0,1,1.077,0V303.83A.538.538,0,0,1,161.6,304.368Z" transform="translate(-161.061 -291.221)" fill="#c1a458"/></g><g transform="translate(10.16 10.722)"><g transform="translate(39.212)"><path d="M182.87,251.775a1.331,1.331,0,1,1,1.331-1.33A1.332,1.332,0,0,1,182.87,251.775Zm0-1.9a.57.57,0,1,0,.571.571A.571.571,0,0,0,182.87,249.874Z" transform="translate(-181.538 -249.113)" fill="#c1a458"/></g><path d="M139.986,251.775a1.331,1.331,0,1,1,1.331-1.33A1.332,1.332,0,0,1,139.986,251.775Zm0-1.9a.57.57,0,1,0,.571.571A.572.572,0,0,0,139.986,249.874Z" transform="translate(-138.654 -249.113)" fill="#c1a458"/><g transform="translate(39.212 38.837)"><path d="M182.87,294.251a1.332,1.332,0,1,1,1.331-1.332A1.333,1.333,0,0,1,182.87,294.251Zm0-1.9a.571.571,0,1,0,.571.571A.572.572,0,0,0,182.87,292.348Z" transform="translate(-181.538 -291.587)" fill="#c1a458"/></g><g transform="translate(0 38.837)"><path d="M139.986,294.251a1.332,1.332,0,1,1,1.331-1.332A1.333,1.333,0,0,1,139.986,294.251Zm0-1.9a.571.571,0,1,0,.571.571A.572.572,0,0,0,139.986,292.348Z" transform="translate(-138.654 -291.587)" fill="#c1a458"/></g></g><g transform="translate(0.001 12.069)"><path d="M168.685,288.819H148.776c-11.581,0-20.788-18.1-21.175-18.874a.538.538,0,0,1,0-.482c.387-.771,9.595-18.876,21.175-18.876h19.91c11.579,0,20.787,18.1,21.173,18.876a.538.538,0,0,1,0,.482C189.472,270.714,180.265,288.819,168.685,288.819Zm-40-19.116c1.139,2.162,9.862,18.039,20.088,18.039h19.909c10.23,0,18.948-15.878,20.086-18.04-1.139-2.163-9.862-18.041-20.085-18.041h-19.91C138.55,251.662,129.827,267.54,128.688,269.7Z" transform="translate(-127.544 -250.586)" fill="#c1a458"/></g><g transform="translate(24.19 18.74)"><path d="M169.616,275.429a6.758,6.758,0,0,1-2.224,5.189,8.037,8.037,0,0,1-5.672,2.051,17.5,17.5,0,0,1-5.792-1.414,1.412,1.412,0,0,0-.483-.1q-.586,0-.9,1.242c-.069.252-.162.379-.276.379q-.276,0-.275-.483a12.429,12.429,0,0,1,.172-1.586,14.942,14.942,0,0,0,.138-2.172q0-1-.035-1.586c-.047-.781-.069-1.242-.069-1.379,0-.368.114-.551.345-.551s.436.495.621,1.482a6.544,6.544,0,0,0,2.173,3.965,6.036,6.036,0,0,0,3.93,1.517,4.466,4.466,0,0,0,3.136-1.171,3.743,3.743,0,0,0,1.276-2.862,3.2,3.2,0,0,0-.828-2.311,24.255,24.255,0,0,0-4-2.447,14.009,14.009,0,0,1-5.1-4,7.544,7.544,0,0,1-1.241-4.342,6.414,6.414,0,0,1,2.1-4.914,7.508,7.508,0,0,1,5.308-1.948,9.528,9.528,0,0,1,3.69.828,2.845,2.845,0,0,0,.931.276q.517,0,.689-.9.069-.31.31-.31c.23,0,.346.15.346.448,0,.115-.024.437-.069.966s-.07.965-.07,1.309a27.762,27.762,0,0,0,.139,3.035.929.929,0,0,1,.034.275c0,.207-.092.311-.276.311q-.309,0-.621-1.1a7.054,7.054,0,0,0-1.085-2.189,5.633,5.633,0,0,0-1.568-1.569,4.607,4.607,0,0,0-2.414-.62,4.7,4.7,0,0,0-3.069.931,3.119,3.119,0,0,0-1.137,2.551,3.457,3.457,0,0,0,1.07,2.5,19.57,19.57,0,0,0,4.1,2.775,23.619,23.619,0,0,1,4.93,3.31A6.392,6.392,0,0,1,169.616,275.429Z" transform="translate(-153.998 -257.881)" fill="#c1a458"/></g></g></g></svg>