<svg xmlns="http://www.w3.org/2000/svg" width="211.85" height="130.83" viewBox="0 0 211.85 130.83"><g transform="translate(-70.288 -237.387)"><g transform="translate(70.288 329.453)"><path d="M83.125,331.211a5.551,5.551,0,0,1-1.827,4.264,6.606,6.606,0,0,1-4.662,1.686A14.359,14.359,0,0,1,71.875,336a1.179,1.179,0,0,0-.4-.085q-.482,0-.737,1.02c-.057.209-.132.312-.226.312-.152,0-.227-.133-.227-.4a10.2,10.2,0,0,1,.143-1.3,12.554,12.554,0,0,0,.112-1.786c0-.547-.01-.982-.028-1.3q-.057-.964-.057-1.134,0-.452.283-.452c.188,0,.359.406.51,1.217a5.381,5.381,0,0,0,1.786,3.259,4.964,4.964,0,0,0,3.23,1.246,3.665,3.665,0,0,0,2.578-.964,3.073,3.073,0,0,0,1.049-2.352,2.631,2.631,0,0,0-.679-1.9,19.982,19.982,0,0,0-3.287-2.012,11.5,11.5,0,0,1-4.194-3.287,6.2,6.2,0,0,1-1.02-3.57,5.272,5.272,0,0,1,1.728-4.039,6.177,6.177,0,0,1,4.364-1.6,7.845,7.845,0,0,1,3.032.681,2.369,2.369,0,0,0,.765.227q.424,0,.566-.737c.039-.17.124-.255.256-.255.188,0,.283.124.283.369q0,.141-.057.793c-.038.435-.056.794-.056,1.077a23.156,23.156,0,0,0,.112,2.493.746.746,0,0,1,.029.227c0,.17-.077.255-.227.255-.17,0-.341-.3-.51-.907a5.818,5.818,0,0,0-.893-1.8A4.6,4.6,0,0,0,78.818,318a3.784,3.784,0,0,0-1.984-.509,3.864,3.864,0,0,0-2.522.764,2.565,2.565,0,0,0-.935,2.1,2.854,2.854,0,0,0,.878,2.056,16.22,16.22,0,0,0,3.373,2.281,19.4,19.4,0,0,1,4.053,2.72A5.255,5.255,0,0,1,83.125,331.211Z" transform="translate(-70.288 -316.786)" fill="#363638"/><path d="M99.358,331.8q0,.056-.028,2.634-.03,1.36-.044,1.956c-.009.4-.013.584-.013.566q-7.482-.339-13.092-.2H83.8c-.341,0-.51-.071-.51-.215,0-.106.043-.169.128-.187s.372-.045.864-.08q1.332-.085,1.445-.764a5.357,5.357,0,0,0,.057-.821V320.349c0-1.133-.009-1.754-.028-1.868a.754.754,0,0,0-.284-.623,2.141,2.141,0,0,0-1.048-.169q-.878,0-.879-.255c0-.188.26-.283.78-.283s1.241-.009,2.167-.028q5.214-.113,8.531-.057h1.926c.415,0,.926-.029,1.531-.086l.255,3.089q.141,1.475.141,1.815a.251.251,0,0,1-.284.283c-.189,0-.313-.246-.37-.737a3.831,3.831,0,0,0-1.578-2.848,7.024,7.024,0,0,0-3.909-.892q-.795,0-2.728.085v8.359a9.754,9.754,0,0,0,3.944-.438q.812-.47,1.1-2.423.141-1.047.427-1.048c.172,0,.256.169.256.509s-.028,1.04-.085,2.1c-.02.358-.029.842-.029,1.446q0,2.437.057,3.684a2.553,2.553,0,0,1,.029.424c0,.226-.086.341-.256.341a.25.25,0,0,1-.256-.128,5.8,5.8,0,0,1-.17-.921,5,5,0,0,0-.784-2.508,3.5,3.5,0,0,0-2.292-.5H90.006v9.521h1.819q3.126-.056,3.808-.141a4.022,4.022,0,0,0,1.649-.623,3.133,3.133,0,0,0,.981-1.219,13.591,13.591,0,0,0,.583-2.408c.056-.284.15-.427.284-.427C99.281,331.377,99.358,331.519,99.358,331.8Z" transform="translate(-68.214 -316.755)" fill="#363638"/><path d="M118,317.437c0,.094-.068.15-.208.169s-.633.048-1.484.085q-.75.03-.86.312a6.732,6.732,0,0,0-.082,1.814v16.691c0,.32-.067.481-.2.481q-.313,0-4.124-4.689t-8.373-10.727v13.744q0,.595.372.736a3.949,3.949,0,0,0,1.4.227q.946,0,1.059.141a.161.161,0,0,1,.029.114c0,.152-.141.227-.426.227a2.684,2.684,0,0,1-.424-.029q-1.7-.056-2.125-.057-.991,0-2.607.057c-.529.019-.756.029-.681.029-.283,0-.424-.075-.424-.227q0-.2,1.246-.283,1.445-.113,1.671-.453a7.057,7.057,0,0,0,.143-2.037V322.133q0-1.783-.056-2.15a2.487,2.487,0,0,0-.993-1.812,4.748,4.748,0,0,0-2.324-.48c-.3-.02-.453-.109-.453-.269,0-.18.132-.27.4-.27.114,0,.521.02,1.219.057q.51.03,1.531.029,2.1,0,3.4-.086l9.946,12.809V318.715q0-.682-.226-.866a1.786,1.786,0,0,0-.964-.213l-1.219-.057c-.226-.019-.341-.086-.341-.2,0-.152.172-.228.511-.228h1.841q2.863,0,3.344.029T118,317.437Z" transform="translate(-65.855 -316.728)" fill="#363638"/><path d="M125.517,336.521c0,.161-.123.242-.368.242a2.276,2.276,0,0,1-.369-.029q-1.7-.085-2.919-.085-1.277,0-3.741.085c-.548.019-.954.029-1.219.029-.284,0-.426-.086-.426-.255a.163.163,0,0,1,.157-.17c.1-.018.467-.038,1.09-.057q.878-.17,1.02-.524a9.661,9.661,0,0,0,.141-2.281V318.8c-.017-.34-.028-.5-.028-.482q0-.706-1.417-.707c-.529,0-.794-.066-.794-.2s.039-.209.114-.227a5.027,5.027,0,0,1,.737-.029h7.453c.245,0,.368.073.368.216a.186.186,0,0,1-.126.2,5.526,5.526,0,0,1-.865.066q-.878.057-1.077.369l-.085.537v15.986q0,1.217.269,1.444a4.322,4.322,0,0,0,1.827.311C125.432,336.3,125.517,336.38,125.517,336.521Z" transform="translate(-62.919 -316.728)" fill="#363638"/><path d="M144.8,327a10.326,10.326,0,0,1-2.651,7.184,8.589,8.589,0,0,1-12.964-.042,10.314,10.314,0,0,1-2.691-7.171,10.18,10.18,0,0,1,2.677-7.2,8.689,8.689,0,0,1,6.645-2.891,8.216,8.216,0,0,1,6.4,2.9A10.471,10.471,0,0,1,144.8,327Zm-4.987.439q0-5.63-1.332-8.318a2.912,2.912,0,0,0-2.777-1.754q-1.927,0-3.074,2.462a15.77,15.77,0,0,0-1.149,6.592q0,6,2.041,8.97a2.8,2.8,0,0,0,2.465,1.245,2.678,2.678,0,0,0,2.636-1.782A19.127,19.127,0,0,0,139.815,327.439Z" transform="translate(-61.321 -316.77)" fill="#363638"/><path d="M162.56,335.633q0,1.588-2.069,1.586a5.456,5.456,0,0,1-4.165-1.648,4.733,4.733,0,0,1-1.389-2.727l-.284-2.329a6.092,6.092,0,0,0-1.033-3.1,2.947,2.947,0,0,0-2.423-.852v6.45q0,2.245.028,2.415a.675.675,0,0,0,.4.669,4.068,4.068,0,0,0,1.5.184c.453,0,.681.086.681.255,0,.152-.114.227-.341.227h-8.557c-.264,0-.4-.067-.4-.2q0-.228,1.162-.279.964-.057,1.134-.455a4.538,4.538,0,0,0,.085-1.194V320a13.946,13.946,0,0,0-.057-1.747.587.587,0,0,0-.368-.413,3.507,3.507,0,0,0-1.275-.17c-.415,0-.624-.086-.624-.256,0-.132.085-.212.256-.241a12.189,12.189,0,0,1,1.36-.043h5.7a15.674,15.674,0,0,1,5.413.624,4.084,4.084,0,0,1,1.812,1.473,3.772,3.772,0,0,1,.681,2.182,4.249,4.249,0,0,1-2.834,4.025,12.973,12.973,0,0,1-3.684.851l-.028.169a6.65,6.65,0,0,1,4.477,1.629,7.48,7.48,0,0,1,1.672,4.632,7.488,7.488,0,0,0,.708,3.189,1.31,1.31,0,0,0,.991.638c.283,0,.426-.075.426-.226,0-.077-.109-.18-.326-.313a.625.625,0,0,1-.326-.566q0-.765.85-.765T162.56,335.633Zm-7.169-14.311q0-3.654-2.891-3.655c-.623,0-1.01.209-1.162.623a16.836,16.836,0,0,0-.141,3.089v4.7a3.979,3.979,0,0,0,3.2-1.105A5.5,5.5,0,0,0,155.39,321.322Z" transform="translate(-58.448 -316.731)" fill="#363638"/><path d="M184.2,331.211a5.547,5.547,0,0,1-1.827,4.264,6.606,6.606,0,0,1-4.662,1.686,14.359,14.359,0,0,1-4.76-1.162,1.179,1.179,0,0,0-.4-.085q-.482,0-.737,1.02c-.057.209-.132.312-.226.312-.152,0-.227-.133-.227-.4a10.2,10.2,0,0,1,.143-1.3,12.555,12.555,0,0,0,.112-1.786q0-.821-.028-1.3-.057-.964-.057-1.134,0-.452.283-.452c.188,0,.359.406.51,1.217a5.381,5.381,0,0,0,1.786,3.259,4.964,4.964,0,0,0,3.23,1.246,3.67,3.67,0,0,0,2.579-.964,3.076,3.076,0,0,0,1.048-2.352,2.626,2.626,0,0,0-.679-1.9A19.981,19.981,0,0,0,177,329.368a11.508,11.508,0,0,1-4.194-3.287,6.2,6.2,0,0,1-1.02-3.57,5.272,5.272,0,0,1,1.728-4.039,6.177,6.177,0,0,1,4.364-1.6,7.845,7.845,0,0,1,3.032.681,2.377,2.377,0,0,0,.765.227q.424,0,.566-.737c.039-.17.124-.255.256-.255.188,0,.283.124.283.369q0,.141-.057.793c-.038.435-.056.794-.056,1.077a23.154,23.154,0,0,0,.112,2.493.747.747,0,0,1,.029.227c0,.17-.077.255-.227.255-.17,0-.341-.3-.51-.907a5.818,5.818,0,0,0-.893-1.8A4.6,4.6,0,0,0,179.895,318a3.781,3.781,0,0,0-1.984-.509,3.864,3.864,0,0,0-2.522.764,2.565,2.565,0,0,0-.935,2.1,2.851,2.851,0,0,0,.879,2.056,16.171,16.171,0,0,0,3.372,2.281,19.33,19.33,0,0,1,4.053,2.72A5.255,5.255,0,0,1,184.2,331.211Z" transform="translate(-54.163 -316.786)" fill="#363638"/><path d="M202.109,317.344c0,.144-.321.224-.964.242q-1.188.028-1.445.4a1.037,1.037,0,0,0-.112.484v12.039q0,6.715-6.405,6.716a6.519,6.519,0,0,1-5.1-2.011q-1.358-1.5-1.36-5.328V319q0-.906-.283-1.105a5.06,5.06,0,0,0-1.786-.311c-.208-.02-.312-.1-.312-.227q0-.256.511-.255h2.408q2.492.028,3.684,0h1.841c.321,0,.481.094.481.284,0,.169-.292.255-.878.255q-1.247,0-1.332.453a3.413,3.413,0,0,0-.057.6v10.614q0,2.3.086,2.922a4.256,4.256,0,0,0,1.048,2.668,3.767,3.767,0,0,0,2.749,1.022,3.267,3.267,0,0,0,2.833-1.247q1.106-1.5,1.106-5.385V318.8a1,1,0,0,0-.421-.964,2.369,2.369,0,0,0-1.092-.169c-.673-.02-1.009-.132-1.009-.34,0-.152.131-.227.4-.227q.424,0,1.246.043c.547.028.964.042,1.246.042.02,0,.18-.029.482-.085h1.558Q202.11,317.1,202.109,317.344Z" transform="translate(-52.093 -316.735)" fill="#363638"/><path d="M209.951,336.521c0,.161-.122.242-.368.242a2.261,2.261,0,0,1-.368-.029q-1.7-.085-2.92-.085-1.275,0-3.739.085c-.548.019-.955.029-1.219.029-.284,0-.426-.086-.426-.255a.162.162,0,0,1,.155-.17c.1-.018.468-.038,1.091-.057q.878-.17,1.02-.524a9.661,9.661,0,0,0,.141-2.281V318.8c-.019-.34-.029-.5-.029-.482q0-.706-1.416-.707c-.529,0-.794-.066-.794-.2s.038-.209.114-.227a5.006,5.006,0,0,1,.736-.029h7.453c.245,0,.369.073.369.216a.186.186,0,0,1-.128.2,5.493,5.493,0,0,1-.865.066q-.878.057-1.077.369l-.085.537v15.986q0,1.217.27,1.444a4.317,4.317,0,0,0,1.827.311C209.866,336.3,209.951,336.38,209.951,336.521Z" transform="translate(-49.449 -316.728)" fill="#363638"/><path d="M226.926,322.4c0,.151-.067.225-.2.225-.209,0-.4-.363-.568-1.091a5.563,5.563,0,0,0-1.416-2.942,4.37,4.37,0,0,0-2.89-.784h-1.333v17.228q.03.71.4.907a7.058,7.058,0,0,0,2,.341c.21.019.315.1.315.255q0,.284-.455.283-.085,0-.424-.028c-.283-.02-.519-.028-.708-.028l-2.919-.086-4.818.141c-.264,0-.4-.075-.4-.227,0-.114.037-.18.114-.2a8.952,8.952,0,0,1,.935-.058q1.558-.056,1.672-.737.057-.37.058-5.771V317.809h-.737a5.27,5.27,0,0,0-3.3.831,4.475,4.475,0,0,0-1.345,2.945c-.132.827-.3,1.238-.51,1.238-.17,0-.255-.114-.255-.34q0-.226.114-1.558.224-2.776.283-3.8h2.494c.057,0,.712.015,1.969.043s2.857.042,4.8.042q1.616,0,2.89-.02t2.324-.022q.936,0,1.418-.043.083,1.835.424,4.68C226.906,322.128,226.926,322.325,226.926,322.4Z" transform="translate(-47.976 -316.731)" fill="#363638"/><path d="M241.883,331.8q0,.056-.028,2.634-.03,1.36-.043,1.956c-.01.4-.014.584-.014.566q-7.482-.339-13.092-.2h-2.38c-.341,0-.51-.071-.51-.215,0-.106.043-.169.128-.187s.373-.045.864-.08q1.332-.085,1.445-.764a5.214,5.214,0,0,0,.057-.821V320.349c0-1.133-.009-1.754-.028-1.868a.757.757,0,0,0-.283-.623,2.149,2.149,0,0,0-1.049-.169c-.584,0-.878-.085-.878-.255,0-.188.259-.283.779-.283s1.242-.009,2.168-.028q5.214-.113,8.53-.057h1.926q.624,0,1.532-.086l.254,3.089q.141,1.475.141,1.815a.251.251,0,0,1-.284.283q-.283,0-.369-.737a3.835,3.835,0,0,0-1.579-2.848,7.019,7.019,0,0,0-3.909-.892q-.795,0-2.728.085v8.359a9.75,9.75,0,0,0,3.944-.438q.812-.47,1.1-2.423.141-1.047.427-1.048.256,0,.255.509t-.085,2.1c-.019.358-.028.842-.028,1.446q0,2.437.057,3.684a2.7,2.7,0,0,1,.028.424c0,.226-.085.341-.256.341a.249.249,0,0,1-.255-.128,5.732,5.732,0,0,1-.172-.921,5,5,0,0,0-.784-2.508,3.5,3.5,0,0,0-2.291-.5h-1.938v9.521h1.819q3.126-.056,3.808-.141a4.016,4.016,0,0,0,1.649-.623,3.123,3.123,0,0,0,.981-1.219,13.591,13.591,0,0,0,.583-2.408c.057-.284.151-.427.284-.427C241.806,331.377,241.883,331.519,241.883,331.8Z" transform="translate(-45.476 -316.755)" fill="#363638"/><path d="M254.757,331.211a5.551,5.551,0,0,1-1.827,4.264,6.606,6.606,0,0,1-4.662,1.686,14.358,14.358,0,0,1-4.76-1.162,1.185,1.185,0,0,0-.4-.085q-.483,0-.737,1.02c-.057.209-.132.312-.226.312-.152,0-.228-.133-.228-.4a10.2,10.2,0,0,1,.143-1.3,12.369,12.369,0,0,0,.114-1.786c0-.547-.01-.982-.028-1.3-.039-.642-.057-1.02-.057-1.134q0-.452.283-.452c.188,0,.359.406.509,1.217a5.393,5.393,0,0,0,1.786,3.259,4.967,4.967,0,0,0,3.232,1.246,3.667,3.667,0,0,0,2.578-.964,3.073,3.073,0,0,0,1.049-2.352,2.631,2.631,0,0,0-.679-1.9,20.039,20.039,0,0,0-3.287-2.012,11.5,11.5,0,0,1-4.2-3.287,6.2,6.2,0,0,1-1.019-3.57,5.272,5.272,0,0,1,1.728-4.039,6.176,6.176,0,0,1,4.363-1.6,7.846,7.846,0,0,1,3.033.681,2.369,2.369,0,0,0,.765.227q.424,0,.566-.737c.038-.17.124-.255.256-.255.188,0,.283.124.283.369,0,.094-.02.358-.057.793s-.057.794-.057,1.077a23.119,23.119,0,0,0,.114,2.493.751.751,0,0,1,.028.227c0,.17-.075.255-.226.255-.17,0-.341-.3-.51-.907a5.844,5.844,0,0,0-.893-1.8A4.6,4.6,0,0,0,250.45,318a3.784,3.784,0,0,0-1.984-.509,3.865,3.865,0,0,0-2.522.764,2.566,2.566,0,0,0-.936,2.1,2.851,2.851,0,0,0,.879,2.056,16.236,16.236,0,0,0,3.372,2.281,19.379,19.379,0,0,1,4.054,2.72A5.255,5.255,0,0,1,254.757,331.211Z" transform="translate(-42.907 -316.786)" fill="#363638"/></g><g transform="translate(133.968 359.211)"><path d="M131.463,342.681a4.144,4.144,0,0,1,1.353.642l-.336.686a4.5,4.5,0,0,0-2.52-.761,3.856,3.856,0,0,0-2.782,1.028,3.571,3.571,0,0,0-1.073,2.7,3.534,3.534,0,0,0,1.054,2.656,4.208,4.208,0,0,0,5.071.325v-2.407h-2.545v-.736h3.344v3.493a4.178,4.178,0,0,1-1.46.842,5.146,5.146,0,0,1-1.709.306,4.636,4.636,0,0,1-3.368-1.246,4.751,4.751,0,0,1,.007-6.506,4.6,4.6,0,0,1,3.349-1.253A5.866,5.866,0,0,1,131.463,342.681Z" transform="translate(-125.207 -342.45)" fill="#363638"/><path d="M141.494,348.119a3.205,3.205,0,0,1-.936,2.415,3.776,3.776,0,0,1-4.9,0,3.206,3.206,0,0,1-.937-2.415v-5.551h.874v5.551a2.448,2.448,0,0,0,.7,1.833,2.486,2.486,0,0,0,1.822.686,2.371,2.371,0,0,0,2.507-2.52v-5.551h.873Z" transform="translate(-123.689 -342.431)" fill="#363638"/><path d="M150.624,351.3h-.91l-1.01-2.557h-4.153l-.987,2.557h-.923l3.457-8.732h1.06Zm-5.787-3.28h3.579l-1.785-4.6Z" transform="translate(-122.426 -342.431)" fill="#363638"/><path d="M157.821,342.631l-3.306,4.454V351.3h-.873v-4.216l-3.306-4.454v-.063h.973l2.77,3.756,2.769-3.756h.973Z" transform="translate(-121.198 -342.431)" fill="#363638"/><path d="M168.842,351.3h-.9l-.662-7.459-3.2,7.347h-.712l-3.193-7.347L159.5,351.3h-.9l.823-8.732h1.035l3.269,7.485,3.256-7.485h1.047Z" transform="translate(-119.88 -342.431)" fill="#363638"/><path d="M177.432,351.3h-.91l-1.01-2.557h-4.153l-.986,2.557h-.923l3.455-8.732h1.06Zm-5.787-3.28h3.579l-1.783-4.6Z" transform="translate(-118.149 -342.431)" fill="#363638"/><path d="M182.065,342.568a2.346,2.346,0,0,1,2.483,2.483,2.332,2.332,0,0,1-2.309,2.444h-.148l2.519,3.73v.075h-.922l-2.5-3.806h-1.647V351.3h-.873v-8.732Zm-2.52.736v3.455h2.52a1.485,1.485,0,0,0,1.147-.474,1.751,1.751,0,0,0,.437-1.235,1.814,1.814,0,0,0-.437-1.266,1.477,1.477,0,0,0-1.147-.48Z" transform="translate(-116.678 -342.431)" fill="#363638"/><path d="M193.468,351.3h-.911l-1.01-2.557h-4.153l-.986,2.557h-.923l3.455-8.732H190Zm-5.788-3.28h3.579l-1.783-4.6Z" transform="translate(-115.591 -342.431)" fill="#363638"/><path d="M195.58,350.564h3.98v.736h-4.853v-8.732h.873Z" transform="translate(-114.119 -342.431)" fill="#363638"/></g><g transform="translate(136.677 237.387)"><g transform="translate(0.001 15.305)"><path d="M179.715,299.07H154.468c-14.685,0-26.362-22.956-26.852-23.934a.683.683,0,0,1,0-.611c.49-.978,12.167-23.937,26.852-23.937h25.248c14.683,0,26.36,22.959,26.85,23.936a.683.683,0,0,1,0,.611C206.076,276.111,194.4,299.07,179.715,299.07Zm-50.72-24.241c1.445,2.741,12.507,22.875,25.474,22.875h25.246c12.973,0,24.028-20.135,25.471-22.876-1.445-2.742-12.507-22.878-25.47-22.878H154.468C141.5,251.951,130.439,272.086,128.995,274.828Z" transform="translate(-127.544 -250.586)" fill="#c1a458"/></g><g transform="translate(15.307)"><path d="M164.985,316.481a.674.674,0,0,1-.306-.072c-.977-.49-23.935-12.167-23.935-26.852V264.311c0-14.687,22.958-26.362,23.935-26.852a.685.685,0,0,1,.612,0c.976.49,23.935,12.167,23.936,26.851v25.245c0,14.687-22.96,26.363-23.936,26.854A.674.674,0,0,1,164.985,316.481Zm0-77.642c-2.741,1.445-22.876,12.506-22.876,25.473v25.245c0,12.974,20.135,24.029,22.876,25.474,2.741-1.445,22.876-12.508,22.876-25.475V264.31C187.86,251.344,167.726,240.284,164.985,238.839Z" transform="translate(-140.744 -237.387)" fill="#c1a458"/></g><g transform="translate(0 38.864)"><path d="M128.226,272.27a.682.682,0,1,1,0-1.365h15.306a.682.682,0,1,1,0,1.365Z" transform="translate(-127.543 -270.904)" fill="#c1a458"/></g><g transform="translate(62.423 38.864)"><path d="M197.367,272.269H182.061a.682.682,0,1,1,0-1.365h15.306a.682.682,0,1,1,0,1.365Z" transform="translate(-181.378 -270.904)" fill="#c1a458"/></g><g transform="translate(38.865 0)"><path d="M161.744,254.056a.682.682,0,0,1-.683-.682v-15.3a.683.683,0,0,1,1.366,0v15.3A.682.682,0,0,1,161.744,254.056Z" transform="translate(-161.061 -237.387)" fill="#c1a458"/></g><g transform="translate(38.865 62.423)"><path d="M161.744,307.893a.682.682,0,0,1-.683-.682V291.9a.683.683,0,0,1,1.366,0v15.307A.682.682,0,0,1,161.744,307.893Z" transform="translate(-161.061 -291.221)" fill="#c1a458"/></g><g transform="translate(12.884 13.597)"><g transform="translate(49.725)"><path d="M183.227,252.488a1.688,1.688,0,1,1,1.688-1.687A1.689,1.689,0,0,1,183.227,252.488Zm0-2.411a.723.723,0,1,0,.724.724A.725.725,0,0,0,183.227,250.078Z" transform="translate(-181.538 -249.113)" fill="#c1a458"/></g><path d="M140.343,252.488a1.688,1.688,0,1,1,1.688-1.687A1.689,1.689,0,0,1,140.343,252.488Zm0-2.411a.723.723,0,1,0,.724.724A.725.725,0,0,0,140.343,250.078Z" transform="translate(-138.654 -249.113)" fill="#c1a458"/><g transform="translate(49.725 49.25)"><path d="M183.227,294.965a1.689,1.689,0,1,1,1.688-1.689A1.69,1.69,0,0,1,183.227,294.965Zm0-2.413a.724.724,0,1,0,.724.724A.725.725,0,0,0,183.227,292.552Z" transform="translate(-181.538 -291.587)" fill="#c1a458"/></g><g transform="translate(0 49.25)"><path d="M140.343,294.965a1.689,1.689,0,1,1,1.688-1.689A1.69,1.69,0,0,1,140.343,294.965Zm0-2.413a.724.724,0,1,0,.724.724A.725.725,0,0,0,140.343,292.552Z" transform="translate(-138.654 -291.587)" fill="#c1a458"/></g></g><g transform="translate(0.001 15.305)"><path d="M179.715,299.07H154.468c-14.685,0-26.362-22.956-26.852-23.934a.683.683,0,0,1,0-.611c.49-.978,12.167-23.937,26.852-23.937h25.248c14.683,0,26.36,22.959,26.85,23.936a.683.683,0,0,1,0,.611C206.076,276.111,194.4,299.07,179.715,299.07Zm-50.72-24.241c1.445,2.741,12.507,22.875,25.474,22.875h25.246c12.973,0,24.028-20.135,25.471-22.876-1.445-2.742-12.507-22.878-25.47-22.878H154.468C141.5,251.951,130.439,272.086,128.995,274.828Z" transform="translate(-127.544 -250.586)" fill="#c1a458"/></g><g transform="translate(30.675 23.764)"><path d="M173.8,280.134a8.57,8.57,0,0,1-2.82,6.58,10.192,10.192,0,0,1-7.193,2.6,22.192,22.192,0,0,1-7.344-1.793,1.791,1.791,0,0,0-.612-.131q-.743,0-1.136,1.575c-.087.32-.205.48-.35.48q-.35,0-.349-.612a15.758,15.758,0,0,1,.218-2.011,18.947,18.947,0,0,0,.175-2.754q0-1.268-.044-2.012c-.059-.99-.087-1.575-.087-1.749,0-.466.145-.7.437-.7s.553.627.787,1.88a8.3,8.3,0,0,0,2.755,5.028,7.655,7.655,0,0,0,4.984,1.924,5.664,5.664,0,0,0,3.977-1.485,4.746,4.746,0,0,0,1.619-3.629,4.052,4.052,0,0,0-1.051-2.93,30.76,30.76,0,0,0-5.072-3.1q-4.764-2.536-6.47-5.073a9.567,9.567,0,0,1-1.573-5.507,8.133,8.133,0,0,1,2.668-6.231,9.521,9.521,0,0,1,6.731-2.47,12.083,12.083,0,0,1,4.679,1.049,3.608,3.608,0,0,0,1.18.35q.656,0,.874-1.137.087-.393.393-.393c.291,0,.438.19.438.568,0,.146-.03.554-.087,1.224s-.089,1.223-.089,1.66a35.2,35.2,0,0,0,.176,3.848,1.179,1.179,0,0,1,.043.349c0,.262-.117.394-.35.394q-.391,0-.787-1.4a8.945,8.945,0,0,0-1.376-2.776,7.144,7.144,0,0,0-1.989-1.99,5.842,5.842,0,0,0-3.061-.786,5.961,5.961,0,0,0-3.891,1.18,3.955,3.955,0,0,0-1.442,3.235,4.384,4.384,0,0,0,1.357,3.169,24.814,24.814,0,0,0,5.2,3.519,29.951,29.951,0,0,1,6.252,4.2A8.106,8.106,0,0,1,173.8,280.134Z" transform="translate(-153.998 -257.881)" fill="#c1a458"/></g></g></g></svg>