<svg xmlns="http://www.w3.org/2000/svg" width="48.286" height="50.65" viewBox="0 0 48.286 50.65"><g transform="translate(0)"><g transform="translate(0 0)"><path d="M-752.274-38.072V-74.056a3.791,3.791,0,0,1,3.789-3.789H-712.5Z" transform="translate(752.274 84.177)" fill="#2d9d54" fill-rule="evenodd"/><path d="M-752.274-37.317v-.755L-712.5-77.845h.755a3.791,3.791,0,0,1,3.79,3.789v.756l-39.773,39.772h-.755A3.791,3.791,0,0,1-752.274-37.317Z" transform="translate(752.274 84.177)" fill="#ffda25" fill-rule="evenodd"/><path d="M-706.294,209.958l17.615-17.613,17.613,17.613Z" transform="translate(710.838 -159.308)" fill="#3d73b9" fill-rule="evenodd"/><path d="M-512.921,166.063-530.8,148.179l4.545-4.544,17.883,17.883v.755a3.791,3.791,0,0,1-3.79,3.789Z" transform="translate(552.693 -115.413)" fill="#fff" fill-rule="evenodd"/><path d="M-464.479,3.373l-17.614-17.614,17.614-17.613Z" transform="translate(508.797 42.733)" fill="#c9c9c9" fill-rule="evenodd"/><path d="M-689.143-27.8h-5.937v2.058h3.513a3.71,3.71,0,0,1-3.513,2.519,3.709,3.709,0,0,1-3.709-3.709,3.709,3.709,0,0,1,3.709-3.709,3.694,3.694,0,0,1,2.425.9l1.641-1.605a5.978,5.978,0,0,0-4.066-1.589,6,6,0,0,0-6,6,6,6,0,0,0,6,6,6,6,0,0,0,5.881-4.809,6.03,6.03,0,0,0,.118-1.191A6.034,6.034,0,0,0-689.143-27.8Z" transform="translate(706.14 43.703)" fill="#edecec"/><g transform="translate(24.446 0)"><path d="M-493-103.994h-.019a.654.654,0,0,1-.647-.623c-.964-6.989-2.8-9.615-4.366-12.216-2.606-4.317-6.9-9.1-6.9-13.842,0-5.977,4.89-11.241,11.9-11.241h.036c7.011,0,11.9,5.264,11.9,11.241,0,4.745-4.292,9.525-6.9,13.842-1.569,2.6-3.4,5.227-4.366,12.216A.654.654,0,0,1-493-103.994Z" transform="translate(504.931 141.915)" fill="#d9362c" fill-rule="evenodd"/><ellipse cx="4.104" cy="4.104" rx="4.104" ry="4.104" transform="translate(7.816 7.281)" fill="#75211d"/></g></g></g></svg>