<svg xmlns="http://www.w3.org/2000/svg" width="80" height="112" viewBox="0 0 106.533 111.75"><g transform="translate(-716 -3380)"><g transform="translate(716 3380)"><path d="M-752.274,9.907V-69.485a8.363,8.363,0,0,1,8.36-8.36h79.389Z" transform="translate(752.274 91.816)" fill="#2d9d54" fill-rule="evenodd"/><path d="M-752.274,11.573V9.907L-675.565-66.8l11.041-11.041h1.666a8.365,8.365,0,0,1,8.363,8.36v1.668l-21.171,21.171-66.581,66.579h-1.666A8.363,8.363,0,0,1-752.274,11.573Z" transform="translate(752.274 91.816)" fill="#ffda25" fill-rule="evenodd"/><path d="M-706.294,231.205l38.863-38.861,38.861,38.861Z" transform="translate(716.32 -119.456)" fill="#3d73b9" fill-rule="evenodd"/><path d="M-491.348,193.117-530.8,153.661l10.029-10.026,39.456,39.456v1.666a8.365,8.365,0,0,1-8.363,8.36Z" transform="translate(579.098 -81.368)" fill="#fff" fill-rule="evenodd"/><path d="M-443.231,45.868-482.094,7.005l38.863-38.861Z" transform="translate(541.009 55.855)" fill="#c9c9c9" fill-rule="evenodd"/><path d="M-674.744-21.608h-13.1v4.541h7.751a8.185,8.185,0,0,1-7.751,5.557,8.184,8.184,0,0,1-8.184-8.184,8.184,8.184,0,0,1,8.184-8.184,8.15,8.15,0,0,1,5.351,1.994l3.621-3.542a13.189,13.189,0,0,0-8.972-3.507A13.238,13.238,0,0,0-701.08-19.694,13.238,13.238,0,0,0-687.842-6.456a13.242,13.242,0,0,0,12.976-10.611,13.294,13.294,0,0,0,.261-2.627A13.313,13.313,0,0,0-674.744-21.608Z" transform="translate(712.243 56.697)" fill="#edecec"/><g transform="translate(53.936 0)"><path d="M-478.612-58.25h-.042a1.442,1.442,0,0,1-1.427-1.374c-2.126-15.419-6.17-21.213-9.632-26.952-5.75-9.525-15.217-20.07-15.217-30.539,0-13.186,10.789-24.8,26.257-24.8h.08c15.469,0,26.26,11.614,26.26,24.8,0,10.469-9.47,21.014-15.219,30.539-3.462,5.739-7.506,11.533-9.632,26.952A1.442,1.442,0,0,1-478.612-58.25Z" transform="translate(504.931 141.915)" fill="#d9362c" fill-rule="evenodd"/><ellipse cx="9.054" cy="9.054" rx="9.054" ry="9.054" transform="translate(17.244 16.063)" fill="#75211d"/></g></g></g></svg>