<svg xmlns="http://www.w3.org/2000/svg" width="132.69" height="74.569" viewBox="0 0 132.69 74.569"><path d="M5740.307,506.182a6.958,6.958,0,0,0-5.326-2.6h-3.017v-2.439a8.215,8.215,0,0,0-8.462-7.928h-3.98V488.72a7.82,7.82,0,0,0-2.47-5.66,8.753,8.753,0,0,0-11.642,0,7.828,7.828,0,0,0-2.47,5.66V509.8h-53.91V488.72a7.817,7.817,0,0,0-2.47-5.66,8.753,8.753,0,0,0-11.642,0,7.82,7.82,0,0,0-2.47,5.66v4.494h-4.465a8.266,8.266,0,0,0-5.578,2.128,7.323,7.323,0,0,0-2.4,5.354v2.885h-2.985a7,7,0,0,0-5.347,2.612,9.061,9.061,0,0,0-2.034,5.831v12.139a9.086,9.086,0,0,0,2.034,5.831,7.005,7.005,0,0,0,5.347,2.61h2.985v2.877a7.333,7.333,0,0,0,2.4,5.365,8.277,8.277,0,0,0,5.578,2.125h4.465v4.5a7.833,7.833,0,0,0,2.47,5.658,8.547,8.547,0,0,0,11.642,0,7.846,7.846,0,0,0,2.47-5.658V526.379h53.91v21.088a7.841,7.841,0,0,0,2.47,5.658,8.547,8.547,0,0,0,11.642,0,7.85,7.85,0,0,0,2.47-5.658v-4.5h3.98a8.223,8.223,0,0,0,8.462-7.936V532.6h3.017a6.988,6.988,0,0,0,5.326-2.6,9.078,9.078,0,0,0,2.024-5.813V511.982a9.063,9.063,0,0,0-2.024-5.8Zm-123.285,22.273a2.822,2.822,0,0,1-2.156-1.114,4.983,4.983,0,0,1-1.073-3.178V512.024a4.974,4.974,0,0,1,1.073-3.18,2.839,2.839,0,0,1,2.156-1.122h2.985v20.733Zm10.963,10.367a4.136,4.136,0,0,1-2.773-1.034,3.129,3.129,0,0,1-1.053-2.306V500.7a3.129,3.129,0,0,1,1.053-2.3,4.162,4.162,0,0,1,2.773-1.042h4.465v41.466Zm16.907,8.646a3.621,3.621,0,0,1-1.177,2.641,4.566,4.566,0,0,1-5.95,0,3.624,3.624,0,0,1-1.177-2.641V488.72a3.635,3.635,0,0,1,1.177-2.644,4.385,4.385,0,0,1,5.95,0,3.631,3.631,0,0,1,1.177,2.644Zm4.139-25.23v-8.291h53.91v8.291Zm66.353,25.23a3.592,3.592,0,0,1-1.174,2.641,4.556,4.556,0,0,1-5.942,0,3.589,3.589,0,0,1-1.175-2.641V488.72a3.632,3.632,0,0,1,1.163-2.644,4.42,4.42,0,0,1,5.954,0,3.6,3.6,0,0,1,1.174,2.644Zm12.442-12.432a4.083,4.083,0,0,1-4.323,3.786h-3.98V497.355h3.98a4.091,4.091,0,0,1,4.323,3.786Zm10.366-10.844a5.015,5.015,0,0,1-1.072,3.159,2.83,2.83,0,0,1-2.139,1.1h-3.017V507.722h3.017a2.81,2.81,0,0,1,2.139,1.114,4.979,4.979,0,0,1,1.072,3.146Zm0,0" transform="translate(-5609.641 -480.844)" fill="#963825"/></svg>