<svg xmlns="http://www.w3.org/2000/svg" width="121.044" height="87" viewBox="0 0 121.044 87"><path d="M839.721,200.3H801.9v-3.783h45.391V182.9l-7.565-3.783c-.756-20.426-13.239-30.639-37.826-31.774v-3.783h7.565V136h-22.7v7.565h7.565v3.783c-24.587,1.135-37.07,11.348-37.826,31.774l-7.565,3.783v13.617H794.33V200.3H756.5a18.729,18.729,0,0,0-18.913,18.913V223H858.635v-3.783A18.729,18.729,0,0,0,839.721,200.3ZM756.5,188.957v-1.513l7.565-3.783v-2.27c0-18.535,10.213-26.478,34.043-26.478s34.044,7.943,34.044,26.478v2.27l7.565,3.783v1.513H756.5Zm-10.591,26.478A11.018,11.018,0,0,1,756.5,207.87h83.217a11.018,11.018,0,0,1,10.591,7.565Z" transform="translate(-737.591 -136)" fill="#963825"/></svg>