<svg xmlns="http://www.w3.org/2000/svg" width="103.191" height="103.192" viewBox="0 0 103.191 103.192"><path d="M4685.219,968.307h-16.645V943.341a4.992,4.992,0,1,0-9.985,0v49.932a4.992,4.992,0,1,0,9.985,0v-14.98h13.316v14.98a4.993,4.993,0,0,0,9.987,0V974.965a6.665,6.665,0,0,0-6.658-6.658Zm-23.3-24.966a1.665,1.665,0,0,1,3.329,0v26.63a1.662,1.662,0,0,0,1.664,1.664h18.309a3.332,3.332,0,0,1,3.329,3.329h-26.63Zm3.329,49.932a1.665,1.665,0,0,1-3.329,0v-14.98h3.329Zm21.637,1.664a1.665,1.665,0,0,1-1.664-1.664v-14.98h3.329v14.98a1.666,1.666,0,0,1-1.665,1.664Zm0,0" transform="translate(-4658.589 -895.074)" fill="#963825"/><path d="M5022.883,938.348a5,5,0,0,0-4.992,4.993v24.966h-16.644a6.664,6.664,0,0,0-6.658,6.658v18.308a4.993,4.993,0,0,0,9.986,0v-14.98h13.315v14.98a4.993,4.993,0,1,0,9.985,0V943.341a5,5,0,0,0-4.993-4.993Zm-21.636,33.288h18.309a1.663,1.663,0,0,0,1.664-1.664v-26.63a1.664,1.664,0,1,1,3.328,0v31.623h-26.63a3.332,3.332,0,0,1,3.329-3.329Zm0,21.637a1.665,1.665,0,0,1-3.329,0v-14.98h3.329Zm21.636,1.664a1.665,1.665,0,0,1-1.663-1.664v-14.98h3.328v14.98a1.665,1.665,0,0,1-1.665,1.664Zm0,0" transform="translate(-4924.685 -895.074)" fill="#963825"/><path d="M4731.822,800.253a3.332,3.332,0,0,0,3.328-3.329v-3.329a3.332,3.332,0,0,0-3.328-3.329h-6.658v-3.635a4.985,4.985,0,0,0,3.329-4.687v-6.657a1.664,1.664,0,0,0-1.664-1.664h-6.657a1.665,1.665,0,0,0-1.666,1.664v6.657a4.987,4.987,0,0,0,3.329,4.687v3.635h-9.986V753.65h48.268a1.664,1.664,0,0,0,1.664-1.664,21.661,21.661,0,0,0-21.637-21.637h-59.917a21.662,21.662,0,0,0-21.637,21.637,1.663,1.663,0,0,0,1.665,1.664h48.267v36.616H4700.2v-3.635a4.986,4.986,0,0,0,3.329-4.687v-6.657a1.664,1.664,0,0,0-1.664-1.664h-6.659a1.664,1.664,0,0,0-1.665,1.664v6.657a4.987,4.987,0,0,0,3.33,4.687v3.635h-8.323a3.332,3.332,0,0,0-3.329,3.329v3.329a3.332,3.332,0,0,0,3.329,3.329h16.644v31.623a1.663,1.663,0,0,0,1.665,1.664h6.658a1.662,1.662,0,0,0,1.665-1.664V800.253Zm-9.987-23.3h3.329v4.993a1.665,1.665,0,0,1-3.329,0Zm-41.609-43.274h59.917a18.333,18.333,0,0,1,18.234,16.644h-96.386a18.333,18.333,0,0,1,18.234-16.644Zm16.644,43.274h3.328v4.993a1.664,1.664,0,1,1-3.328,0Zm-8.323,16.644h43.274v3.329h-43.274Zm23.3,36.617h-3.329V800.253h3.329Zm0,0" transform="translate(-4658.589 -730.348)" fill="#963825"/></svg>