<svg xmlns="http://www.w3.org/2000/svg" width="119.966" height="95.074" viewBox="0 0 119.966 95.074"><g transform="translate(0)"><path d="M4650.7,124.83a12.559,12.559,0,0,1,8.437,3.083,17.182,17.182,0,0,0,21.717,0,13.1,13.1,0,0,1,16.886,0,17.192,17.192,0,0,0,21.718,0,13.106,13.106,0,0,1,16.89,0,17.2,17.2,0,0,0,21.73,0,12.6,12.6,0,0,1,8.451-3.083,2.069,2.069,0,0,0,2.069-2.068V109.688a2.069,2.069,0,0,0-2.069-2.068,20.618,20.618,0,0,0-10.59,2.664,16.479,16.479,0,0,1-8.724,2.213,12.591,12.591,0,0,1-8.451-3.086,17.351,17.351,0,0,0-7.859-3.612l-17.225-18.663,17.088-14.1a6.514,6.514,0,0,0-7.883-10.355l-22.584,17.932a6.2,6.2,0,0,0-.909,8.831l6.308,7.567-11.169,9.308a16.956,16.956,0,0,0-5.242-.766,16.571,16.571,0,0,0-10.854,3.86A12.579,12.579,0,0,1,4670,112.5a16.434,16.434,0,0,1-8.713-2.213,20.6,20.6,0,0,0-10.581-2.664,2.068,2.068,0,0,0-2.067,2.068v13.073a2.068,2.068,0,0,0,2.067,2.068Zm59.242-25.963a2.069,2.069,0,0,0,.264-2.912l-7.632-9.157a2.068,2.068,0,0,1,.3-2.943l22.492-17.867a2.377,2.377,0,0,1,2.809,3.833l-18.822,15.513a2.069,2.069,0,0,0-.207,3l16.071,17.411a17.188,17.188,0,0,0-8.192,3.665,13.1,13.1,0,0,1-16.889,0c-.5-.36-1.021-.726-1.567-1.089ZM4670,116.634a16.561,16.561,0,0,0,10.86-3.865,13.1,13.1,0,0,1,16.886,0,17.191,17.191,0,0,0,21.718,0,13.1,13.1,0,0,1,16.89,0,16.589,16.589,0,0,0,10.868,3.865,20.651,20.651,0,0,0,10.59-2.661,16.575,16.575,0,0,1,6.655-2.114V120.8a16.882,16.882,0,0,0-8.8,3.752,13.109,13.109,0,0,1-16.9,0,17.194,17.194,0,0,0-21.716,0,13.1,13.1,0,0,1-16.889,0,17.194,17.194,0,0,0-21.718,0,13.087,13.087,0,0,1-16.88,0,16.858,16.858,0,0,0-8.792-3.754v-8.945a16.575,16.575,0,0,1,6.646,2.118A20.605,20.605,0,0,0,4670,116.634Zm0,0" transform="translate(-4648.635 -61.527)" fill="#ef551e"/><path d="M4952.635,146.147a10.342,10.342,0,1,0,10.342-10.342,10.341,10.341,0,0,0-10.342,10.342Zm10.342-6.205a6.205,6.205,0,1,1-6.205,6.205,6.205,6.205,0,0,1,6.205-6.205Zm0,0" transform="translate(-4874.036 -116.6)" fill="#ef551e"/><path d="M4650.7,352.351a11.893,11.893,0,0,1,8.368,3.361A15.829,15.829,0,0,0,4670,359.963a16.568,16.568,0,0,0,10.86-3.866,13.1,13.1,0,0,1,16.886,0,17.192,17.192,0,0,0,21.718,0,13.105,13.105,0,0,1,16.89,0,16.577,16.577,0,0,0,10.865,3.866,15.842,15.842,0,0,0,10.938-4.251,11.911,11.911,0,0,1,8.378-3.361,2.069,2.069,0,0,0,2.069-2.068v-12.41a2.069,2.069,0,0,0-2.069-2.068,15.852,15.852,0,0,0-10.937,4.257,11.913,11.913,0,0,1-8.376,3.361,12.586,12.586,0,0,1-8.451-3.086,17.194,17.194,0,0,0-21.716,0,13.1,13.1,0,0,1-16.889,0,17.194,17.194,0,0,0-21.718,0,12.569,12.569,0,0,1-8.443,3.086,11.888,11.888,0,0,1-8.37-3.361A15.833,15.833,0,0,0,4650.7,335.8a2.068,2.068,0,0,0-2.067,2.068v12.41a2.068,2.068,0,0,0,2.067,2.068Zm19.294-4.8a16.569,16.569,0,0,0,10.86-3.866,13.1,13.1,0,0,1,16.886,0,17.192,17.192,0,0,0,21.718,0,13.106,13.106,0,0,1,16.89,0,16.577,16.577,0,0,0,10.865,3.866,15.842,15.842,0,0,0,10.938-4.251,12.751,12.751,0,0,1,6.31-3.191v8.224a16.261,16.261,0,0,0-8.869,4.137,11.913,11.913,0,0,1-8.376,3.361,12.586,12.586,0,0,1-8.451-3.086,17.194,17.194,0,0,0-21.716,0,13.1,13.1,0,0,1-16.889,0,17.194,17.194,0,0,0-21.718,0,12.569,12.569,0,0,1-8.443,3.086,11.888,11.888,0,0,1-8.37-3.361,16.245,16.245,0,0,0-8.859-4.137V340.11a12.751,12.751,0,0,1,6.3,3.191A15.83,15.83,0,0,0,4670,347.552Zm0,0" transform="translate(-4648.635 -264.89)" fill="#ef551e"/><path d="M4792.655,114.587c-.673,3.8.884,7.624,4.623,11.362a2.069,2.069,0,0,0,2.926-2.925c-2.724-2.724-3.894-5.317-3.479-7.707.8-4.583,6.971-7.543,7.032-7.572A2.069,2.069,0,1,0,4802,104c-.333.155-8.167,3.882-9.348,10.589Zm0,0" transform="translate(-4755.306 -92.872)" fill="#ef551e"/><path d="M4765.464,116.731a2.067,2.067,0,0,0,1.569-3.415,13.785,13.785,0,0,1-4-11.019c.967-6.412,7.6-10.662,7.667-10.7a2.073,2.073,0,0,0-2.2-3.517c-.339.207-8.288,5.266-9.555,13.561-.742,4.838.922,9.669,4.944,14.361a2.06,2.06,0,0,0,1.569.732Zm0,0" transform="translate(-4730.301 -80.98)" fill="#ef551e"/></g></svg>