<svg xmlns="http://www.w3.org/2000/svg" width="30" height="30" viewBox="0 0 39 39"><g transform="translate(0)"><path d="M19.5,0A19.5,19.5,0,1,0,39,19.5,19.522,19.522,0,0,0,19.5,0Zm9.076,23.436a5.789,5.789,0,0,1-.437,2.187,4.383,4.383,0,0,1-1.057,1.6,4.9,4.9,0,0,1-1.6,1.057,7.678,7.678,0,0,1-2.187.437c-.948.036-1.276.036-3.718.036s-2.77,0-3.718-.036a5.789,5.789,0,0,1-2.187-.437,4.383,4.383,0,0,1-1.6-1.057,4.9,4.9,0,0,1-1.057-1.6,7.678,7.678,0,0,1-.437-2.187c-.036-.948-.036-1.276-.036-3.718s0-2.77.036-3.718a5.789,5.789,0,0,1,.437-2.187,4.383,4.383,0,0,1,1.057-1.6,4.9,4.9,0,0,1,1.6-1.057,7.678,7.678,0,0,1,2.187-.437c.948-.036,1.276-.036,3.718-.036s2.77,0,3.718.036a5.788,5.788,0,0,1,2.187.437,4.383,4.383,0,0,1,1.6,1.057,4.9,4.9,0,0,1,1.057,1.6A7.678,7.678,0,0,1,28.576,16c.036.948.036,1.276.036,3.718C28.649,22.161,28.612,22.452,28.576,23.436Z" fill="#094366"/><g transform="translate(12.101 12.247)"><ellipse cx="3.025" cy="3.025" rx="3.025" ry="3.025" transform="translate(4.447 4.41)" fill="#094366"/><path d="M48.035,37.391a4.392,4.392,0,0,0-.328-1.677,3.1,3.1,0,0,0-1.75-1.75,6.568,6.568,0,0,0-1.677-.328c-.948-.036-1.239-.036-3.645-.036s-2.7,0-3.645.036a4.392,4.392,0,0,0-1.677.328,3.1,3.1,0,0,0-1.75,1.75,6.568,6.568,0,0,0-.328,1.677c-.036.948-.036,1.239-.036,3.645s0,2.7.036,3.645a4.392,4.392,0,0,0,.328,1.677,3.1,3.1,0,0,0,1.75,1.75,6.568,6.568,0,0,0,1.677.328c.948.036,1.239.036,3.645.036s2.7,0,3.645-.036a4.392,4.392,0,0,0,1.677-.328,3.1,3.1,0,0,0,1.75-1.75,6.568,6.568,0,0,0,.328-1.677c.036-.948.036-1.239.036-3.645A32.557,32.557,0,0,0,48.035,37.391ZM40.672,45.7A4.629,4.629,0,1,1,45.3,41.072,4.589,4.589,0,0,1,40.672,45.7Zm4.848-8.42a1.093,1.093,0,1,1,1.093-1.093A1.1,1.1,0,0,1,45.52,37.281Z" transform="translate(-33.2 -33.6)" fill="#094366"/></g></g></svg>