<svg xmlns="http://www.w3.org/2000/svg" width="106.064" height="123.056" viewBox="0 0 106.064 123.056"><g transform="translate(-0.7)"><g transform="translate(0.01)"><g transform="translate(0 93.365)"><g transform="translate(0.69)"><path d="M1.5,201.67H6.037l7.032,25.921h.083l7.032-25.921h4.292v29.19H21.861V204.124h-.083L14.213,230.86H11.759L4.2,204.124H4.116V230.86H1.5Z" transform="translate(-1.5 -201.67)" fill="#094366"/><path d="M61.441,216.78c4.782,0,7.481,3.8,7.481,11.324,0,7.565-2.7,11.366-7.481,11.366s-7.481-3.8-7.481-11.366C53.96,220.581,56.659,216.78,61.441,216.78Zm0,20.643c2.741,0,4.866-2.37,4.866-9.319,0-6.907-2.125-9.282-4.866-9.282s-4.866,2.37-4.866,9.282C56.576,235.053,58.7,237.423,61.441,237.423Z" transform="translate(-29.673 -209.785)" fill="#094366"/><path d="M88.75,217.271H91.2v3.393h.083a5.743,5.743,0,0,1,5.477-3.884,3.247,3.247,0,0,1,.861.12v2.454a6.019,6.019,0,0,0-1.185-.12c-2.7,0-5.231,1.963-5.231,6.171v13.574H88.755V217.271Z" transform="translate(-48.357 -209.785)" fill="#094366"/><path d="M106.224,223.729c0-4.458,2.125-6.949,6.7-6.949,4.5,0,6.134,2.329,6.134,5.764v12.838c0,1.227.407,1.8,1.269,1.8h.694v1.8a3.44,3.44,0,0,1-1.144.245c-1.921,0-3.148-.449-3.148-2.7v-.736h-.083c-.981,2.861-3.19,3.681-5.6,3.681-3.8,0-5.518-2.37-5.518-6.134,0-2.861,1.31-5.153,4.375-6.009l4.62-1.31c1.718-.491,2.083-.9,2.083-3.435,0-2.782-1.556-3.759-3.759-3.759-2.9,0-4.171,1.759-4.171,4.907h-2.454Zm10.384,2.986h-.083c-.245.736-1.634,1.185-2.616,1.431l-2.046.532c-2.454.653-3.722,1.921-3.722,4.5,0,2.537,1.31,4.25,3.435,4.25,2.986,0,5.028-2.25,5.028-6.134v-4.574Z" transform="translate(-57.368 -209.785)" fill="#094366"/><path d="M140.33,217.271h2.208v3.023h.083a6.094,6.094,0,0,1,5.56-3.514c3.31,0,5.56,1.718,5.56,5.806v16.393h-2.454v-15.7c0-2.986-1.227-4.458-3.722-4.458-2.861,0-4.782,2.208-4.782,5.56v14.6H140.33Z" transform="translate(-76.057 -209.785)" fill="#094366"/><path d="M184.637,227.267h-.083a5.349,5.349,0,0,1-5.315,4.088c-4.782,0-6.949-3.843-6.949-11.366,0-7.481,2.167-11.324,6.949-11.324a4.825,4.825,0,0,1,5.069,3.759h.083V201.67h2.454v29.19h-2.208Zm-4.986,2.042c2.5,0,4.741-1.269,4.741-9.319,0-8.014-2.25-9.282-4.741-9.282-2.454,0-4.741,1.269-4.741,9.282C174.91,228.04,177.2,229.309,179.651,229.309Z" transform="translate(-93.221 -201.67)" fill="#094366"/><path d="M208.5,201.67h2.454v4.171H208.5Zm0,7.486h2.454v21.708H208.5Z" transform="translate(-112.667 -201.67)" fill="#094366"/><g transform="translate(99.967 1.019)"><path d="M220.388,203.87a2.961,2.961,0,1,1-2.958,2.958A2.958,2.958,0,0,1,220.388,203.87Zm0,5.079a2.116,2.116,0,1,0-2.065-2.116A2.066,2.066,0,0,0,220.388,208.949Zm-1.157-3.713h1.245c.829,0,1.227.361,1.227.991a.85.85,0,0,1-.792.884l.792,1.315h-.764l-.75-1.287h-.255v1.287h-.7Zm.7,1.347h.532c.31,0,.537-.056.537-.4s-.343-.394-.606-.394h-.463Z" transform="translate(-217.43 -203.87)" fill="#094366"/></g></g></g><path d="M95.171,115.558a76.179,76.179,0,0,0-7.056,22.356l-.019.134-.356,2.074h35.315V89.91C111.1,93.771,101.731,102.382,95.171,115.558Z" transform="translate(-47.124 -48.285)" fill="#094366"/><path d="M1.5,117.737v22.412H33.842l.241-50.2C13.491,96.334,4.782,110.316,1.5,117.737Z" transform="translate(-0.81 -48.307)" fill="#094366"/><path d="M36.639,34.606l4.324-1.032-.171,35.273q.91-2.111,2.009-4.3C50,50.328,60.754,40.574,74.106,36.06,58.546,21.528,36,7.81,3.481.449L1.5,0V56.453C7.847,48.111,18.648,38.9,36.639,34.606Z" transform="translate(-0.81)" fill="#094366"/></g><path d="M202.765,145.112l-.31-1.643c-.074-.384-4.412-21.824-23.685-44.268v45.912Z" transform="translate(-96.001 -53.274)" fill="#e18233"/></g></svg>