<svg xmlns="http://www.w3.org/2000/svg" width="79.925" height="99.808" viewBox="0 0 79.925 99.808"><g transform="translate(-100.85 -151.105)"><g transform="translate(101.371 221.003)"><g transform="translate(0)"><path d="M103.415,495.31h3.4l5.265,19.4h.061l5.264-19.4h3.214v21.854h-1.959V497.147H118.6l-5.662,20.017H111.1l-5.662-20.017h-.061v20.017h-1.959Z" transform="translate(-103.415 -495.31)" fill="#163a57"/><path d="M198.545,521.083c3.581,0,5.6,2.847,5.6,8.478,0,5.662-2.02,8.509-5.6,8.509s-5.6-2.846-5.6-8.509C192.944,523.93,194.964,521.083,198.545,521.083Zm0,15.457c2.051,0,3.642-1.775,3.642-6.978,0-5.173-1.592-6.948-3.642-6.948s-3.642,1.775-3.642,6.948C194.9,534.764,196.494,536.54,198.545,536.54Z" transform="translate(-174.763 -515.849)" fill="#163a57"/><path d="M252.329,521.45h1.836v2.54h.061a4.3,4.3,0,0,1,4.1-2.908,2.336,2.336,0,0,1,.643.092v1.836a4.6,4.6,0,0,0-.888-.092c-2.02,0-3.918,1.469-3.918,4.622V537.7h-1.836Z" transform="translate(-222.089 -515.849)" fill="#163a57"/><path d="M281.487,526.286c0-3.336,1.592-5.2,5.02-5.2,3.367,0,4.591,1.745,4.591,4.316v9.611c0,.919.306,1.347.949,1.347h.52V537.7a2.546,2.546,0,0,1-.857.184c-1.439,0-2.357-.337-2.357-2.02v-.551h-.061a3.968,3.968,0,0,1-4.193,2.755c-2.846,0-4.132-1.775-4.132-4.591a4.282,4.282,0,0,1,3.275-4.5L287.7,528c1.285-.367,1.561-.673,1.561-2.571a2.493,2.493,0,0,0-2.816-2.816c-2.173,0-3.122,1.316-3.122,3.673Zm7.774,2.234H289.2c-.184.551-1.224.888-1.959,1.071l-1.53.4c-1.836.49-2.785,1.439-2.785,3.367,0,1.9.979,3.183,2.571,3.183,2.234,0,3.765-1.683,3.765-4.591Z" transform="translate(-244.911 -515.849)" fill="#163a57"/><path d="M340.352,521.45H342v2.265h.061a4.563,4.563,0,0,1,4.163-2.632c2.479,0,4.163,1.285,4.163,4.346V537.7h-1.837V525.95c0-2.234-.918-3.336-2.785-3.336-2.142,0-3.581,1.653-3.581,4.163V537.7h-1.836Z" transform="translate(-292.237 -515.849)" fill="#163a57"/><path d="M404.154,514.47h-.061a4.006,4.006,0,0,1-3.979,3.061c-3.581,0-5.2-2.877-5.2-8.509,0-5.6,1.622-8.478,5.2-8.478a3.612,3.612,0,0,1,3.8,2.816h.061v-8.05h1.836v21.854h-1.653ZM400.42,516c1.867,0,3.55-.949,3.55-6.978,0-6-1.683-6.948-3.55-6.948-1.836,0-3.55.949-3.55,6.948C396.87,515.052,398.584,516,400.42,516Z" transform="translate(-335.717 -495.31)" fill="#163a57"/><path d="M456.706,495.31h1.836v3.122h-1.836Zm0,5.6h1.836v16.252h-1.836Z" transform="translate(-384.963 -495.31)" fill="#163a57"/></g><g transform="translate(74.836 0.762)"><path d="M474.152,499.061a2.216,2.216,0,1,1-2.216,2.216A2.215,2.215,0,0,1,474.152,499.061Zm0,3.8a1.584,1.584,0,1,0-1.547-1.583A1.548,1.548,0,0,0,474.152,502.86Zm-.867-2.778h.932c.621,0,.92.269.92.741a.638.638,0,0,1-.591.663l.591.986h-.573L474,501.51h-.191v.962h-.526Zm.526,1.01h.4c.233,0,.4-.042.4-.3s-.257-.293-.454-.293h-.346Z" transform="translate(-471.936 -499.061)" fill="#163a57"/></g></g><g transform="translate(100.85 243.962)"><path d="M104.187,612.083c-.06,1.038-.455,1.991-1.62,1.991-1.516,0-1.717-1.468-1.717-2.852s.246-2.852,1.717-2.852c1.09,0,1.545.631,1.575,1.707h-.687c-.015-.623-.209-1.153-.888-1.153-.911,0-1.03,1.03-1.03,2.3s.119,2.3,1.03,2.3c.8,0,.911-.769.933-1.438Z" transform="translate(-100.85 -608.37)" fill="#163a57"/><path d="M120.8,616.462c0-.938.388-1.353,1.344-1.353,1.217,0,1.217.753,1.217,1.184v2.3c0,.169,0,.331.194.331a.219.219,0,0,0,.149-.039v.461a2.215,2.215,0,0,1-.366.038c-.239,0-.538,0-.567-.53h-.015a1.128,1.128,0,0,1-.963.592c-.746,0-1.09-.461-1.09-1.2a1.065,1.065,0,0,1,.754-1.138l.844-.262c.455-.146.455-.277.455-.622a.565.565,0,0,0-.642-.608c-.687,0-.687.661-.687.807v.038Zm1.934.631c-.232.254-.784.307-1.068.484a.663.663,0,0,0-.306.653c0,.415.142.707.567.707a.826.826,0,0,0,.806-.784Z" transform="translate(-116.674 -613.741)" fill="#163a57"/><path d="M139.642,608.9h.627v5.49h-.627Z" transform="translate(-131.764 -608.792)" fill="#163a57"/><path d="M148.612,608.9h.627v.738h-.627Zm0,1.369h.627v4.121h-.627Z" transform="translate(-138.913 -608.792)" fill="#163a57"/><path d="M159.45,614.39h-.6v-.507h-.015a.91.91,0,0,1-.866.615c-.948,0-1.307-.869-1.307-2.168,0-.861.134-2.168,1.262-2.168a.97.97,0,0,1,.881.577h.015V608.9h.627Zm-1.4-.446c.695,0,.806-.676.806-1.615,0-.8-.134-1.614-.806-1.614-.582,0-.732.63-.732,1.614S157.471,613.943,158.054,613.943Z" transform="translate(-145.331 -608.792)" fill="#163a57"/><path d="M175.036,616.462c0-.938.388-1.353,1.344-1.353,1.217,0,1.217.753,1.217,1.184v2.3c0,.169,0,.331.194.331a.22.22,0,0,0,.149-.039v.461a2.221,2.221,0,0,1-.366.038c-.239,0-.538,0-.567-.53h-.015a1.128,1.128,0,0,1-.963.592c-.747,0-1.09-.461-1.09-1.2a1.066,1.066,0,0,1,.754-1.138l.844-.262c.455-.146.455-.277.455-.622a.566.566,0,0,0-.642-.608c-.687,0-.687.661-.687.807v.038Zm1.934.631c-.231.254-.784.307-1.067.484a.662.662,0,0,0-.306.653c0,.415.142.707.567.707a.826.826,0,0,0,.806-.784Z" transform="translate(-159.894 -613.741)" fill="#163a57"/><path d="M195.741,614.39h-.6v-.507h-.015a.91.91,0,0,1-.866.615c-.948,0-1.307-.869-1.307-2.168,0-.861.134-2.168,1.262-2.168a.969.969,0,0,1,.881.577h.015V608.9h.627Zm-1.4-.446c.694,0,.806-.676.806-1.615,0-.8-.134-1.614-.806-1.614-.582,0-.732.63-.732,1.614S193.762,613.943,194.345,613.943Z" transform="translate(-174.252 -608.792)" fill="#163a57"/><path d="M223.9,618.868h-.015a.908.908,0,0,1-.836.577c-1.038,0-1.307-1.122-1.307-2.245,0-1.222.359-2.091,1.307-2.091a.91.91,0,0,1,.866.615h.015v-.508h.6v5.474H223.9Zm-.769-3.206c-.582,0-.732.63-.732,1.538,0,1.061.149,1.691.732,1.691.672,0,.806-.815.806-1.615C223.94,616.339,223.828,615.663,223.134,615.663Z" transform="translate(-197.195 -613.741)" fill="#163a57"/><path d="M243.611,619.76h-.6v-.484H243a1.065,1.065,0,0,1-.971.592c-1.053,0-1.053-.823-1.053-1.307v-2.921h.627v2.845c0,.315.023.83.59.83a.783.783,0,0,0,.792-.83v-2.845h.627Z" transform="translate(-212.52 -614.163)" fill="#163a57"/><path d="M259.467,617.354c0,.63,0,1.584.769,1.584.6,0,.679-.646.679-.953h.627a1.38,1.38,0,0,1-1.344,1.461c-.978,0-1.388-.7-1.388-2.114,0-1.03.194-2.222,1.426-2.222s1.336,1.1,1.336,1.984v.261Zm1.448-.508v-.223c0-.461-.142-1.007-.694-1.007-.657,0-.732.83-.732,1.076v.154Z" transform="translate(-226.733 -613.741)" fill="#163a57"/><path d="M288.4,616.424c0-.523-.135-.807-.59-.807a.582.582,0,0,0-.649.63c0,.484.493.577.986.746s.978.346.978,1.161a1.187,1.187,0,0,1-1.291,1.292,1.253,1.253,0,0,1-1.374-1.461h.627c0,.5.135.953.747.953a.635.635,0,0,0,.664-.684c0-.554-.493-.669-.978-.838s-.986-.315-.986-1.168a1.135,1.135,0,0,1,1.277-1.138c1.165,0,1.209.83,1.217,1.315Z" transform="translate(-248.766 -613.741)" fill="#163a57"/><path d="M303.993,617.354c0,.63,0,1.584.769,1.584.6,0,.679-.646.679-.953h.627a1.38,1.38,0,0,1-1.344,1.461c-.978,0-1.389-.7-1.389-2.114,0-1.03.194-2.222,1.426-2.222s1.336,1.1,1.336,1.984v.261Zm1.448-.508v-.223c0-.461-.142-1.007-.694-1.007-.657,0-.732.83-.732,1.076v.154Z" transform="translate(-262.217 -613.741)" fill="#163a57"/><path d="M333.318,616.47c0-.4-.157-.853-.635-.853-.388,0-.784.2-.784,1.707,0,.538.007,1.614.762,1.614.538,0,.657-.584.657-1.03h.627a1.37,1.37,0,0,1-1.314,1.538c-.978,0-1.389-.7-1.389-2.114,0-1.03.194-2.222,1.426-2.222a1.228,1.228,0,0,1,1.277,1.361Z" transform="translate(-284.456 -613.741)" fill="#163a57"/><path d="M349.707,615.109c1.157,0,1.441,1.007,1.441,2.168s-.291,2.168-1.441,2.168-1.441-1.007-1.441-2.168S348.557,615.109,349.707,615.109Zm.784,2.168c0-.892-.127-1.66-.8-1.66-.635,0-.769.769-.769,1.66s.127,1.661.769,1.661C350.357,618.938,350.491,618.169,350.491,617.277Z" transform="translate(-298.023 -613.741)" fill="#163a57"/><path d="M367.019,615.217h.6v.485h.015a1.066,1.066,0,0,1,.971-.592c1.053,0,1.053.823,1.053,1.307v2.922h-.627v-2.845c0-.315-.022-.83-.59-.83a.783.783,0,0,0-.791.83v2.845h-.627Z" transform="translate(-312.968 -613.741)" fill="#163a57"/><path d="M386.35,616.424c0-.523-.134-.807-.59-.807a.582.582,0,0,0-.649.63c0,.484.493.577.985.746s.978.346.978,1.161a1.187,1.187,0,0,1-1.292,1.292,1.253,1.253,0,0,1-1.374-1.461h.627c0,.5.134.953.747.953a.635.635,0,0,0,.664-.684c0-.554-.493-.669-.978-.838s-.986-.315-.986-1.168a1.136,1.136,0,0,1,1.277-1.138c1.165,0,1.209.83,1.217,1.315Z" transform="translate(-326.826 -613.741)" fill="#163a57"/><path d="M400.582,609.733h.627v1.2h.694v.508h-.694v2.645c0,.331.082.462.411.462a1.861,1.861,0,0,0,.276-.023v.531a2.591,2.591,0,0,1-.508.046c-.649,0-.806-.277-.806-.815V611.44H400v-.508h.582Z" transform="translate(-339.251 -609.456)" fill="#163a57"/><path d="M412.942,615.217h.627v.615h.015c.179-.392.418-.723.866-.723a.628.628,0,0,1,.276.046v.631a1.667,1.667,0,0,0-.336-.031.9.9,0,0,0-.821.976v2.606h-.627Z" transform="translate(-349.565 -613.741)" fill="#163a57"/><path d="M427.931,619.76h-.6v-.484h-.015a1.065,1.065,0,0,1-.97.592c-1.053,0-1.053-.823-1.053-1.307v-2.921h.627v2.845c0,.315.023.83.59.83a.783.783,0,0,0,.792-.83v-2.845h.627Z" transform="translate(-359.41 -614.163)" fill="#163a57"/><path d="M442.137,615.639h.687l.791,3.306h.015l.7-3.306h.687l-1.157,4.4c-.149.569-.314,1.076-1.068,1.076a4.413,4.413,0,0,1-.455-.023v-.507a2.241,2.241,0,0,0,.366.023.491.491,0,0,0,.492-.4l.12-.361Z" transform="translate(-372.831 -614.163)" fill="#163a57"/><path d="M460.184,617.354c0,.63,0,1.584.769,1.584.6,0,.679-.646.679-.953h.627a1.38,1.38,0,0,1-1.344,1.461c-.978,0-1.389-.7-1.389-2.114,0-1.03.194-2.222,1.426-2.222s1.336,1.1,1.336,1.984v.261Zm1.448-.508v-.223c0-.461-.142-1.007-.694-1.007-.657,0-.732.83-.732,1.076v.154Z" transform="translate(-386.69 -613.741)" fill="#163a57"/></g><g transform="translate(101.371 151.105)"><path d="M256.161,323.752a57.053,57.053,0,0,0-5.283,16.738l-.014.1-.265,1.553h26.436V304.549C268.087,307.441,261.074,313.889,256.161,323.752Z" transform="translate(-220.71 -273.389)" fill="#163a57"/><path d="M103.415,325.419V342.2h24.214l.179-37.58C112.389,309.4,105.872,319.865,103.415,325.419Z" transform="translate(-103.415 -273.443)" fill="#163a57"/><path d="M129.719,177.012l3.236-.774-.128,26.407c.454-1.054.954-2.129,1.5-3.214,5.39-10.646,13.441-17.95,23.437-21.329-11.645-10.881-28.527-21.152-52.87-26.662l-1.483-.335v42.262C108.167,187.122,116.251,180.224,129.719,177.012Z" transform="translate(-103.415 -151.105)" fill="#163a57"/><path d="M423.932,354.795l-.232-1.229c-.055-.287-3.3-16.337-17.732-33.141v34.37Z" transform="translate(-344.528 -286.041)" fill="#db6b22"/></g></g></svg>