<svg xmlns="http://www.w3.org/2000/svg" width="80" height="70" viewBox="0 0 124.419 107.67"><g transform="translate(-796.458 -154.047)"><path d="M798.993,213.522h13.6v45.66a2.536,2.536,0,0,0,2.537,2.535h91.158a2.534,2.534,0,0,0,2.535-2.535V215.213l9.52.006h0a2.542,2.542,0,0,0,2.1-3.964L891.5,168.747a2.525,2.525,0,0,0-2.093-1.109h-5.642V156.58a2.535,2.535,0,0,0-2.539-2.533H869.948a2.533,2.533,0,0,0-2.537,2.533v11.058H826.776a2.6,2.6,0,0,0-.562.068c-.056.015-.109.036-.166.05a3.147,3.147,0,0,0-.363.139c-.063.031-.124.067-.185.1a1.357,1.357,0,0,0-.146.077,1.616,1.616,0,0,0-.156.131c-.053.044-.106.082-.157.13a2.484,2.484,0,0,0-.292.335c-.02.027-.045.045-.067.074L796.9,209.557a2.536,2.536,0,0,0,2.094,3.965Zm44.4,43.126h-8.713V228.424a7.381,7.381,0,0,1,8.713,0Zm24.02,0h-18.95V227.279a2.536,2.536,0,0,0-.742-1.793,12.286,12.286,0,0,0-17.368,0,2.533,2.533,0,0,0-.743,1.793v29.369H817.664v-44.88l17.182-25.242,18.767,27.563a2.538,2.538,0,0,0,2.1,1.11l11.7,0Zm36.34,0h-31.27V215.2l31.27.009Zm-36.34-83.938v13.635a2.535,2.535,0,0,0,5.07,0V159.119h6.21v27.226a2.535,2.535,0,0,0,5.07,0V172.71h4.3l25.488,37.432-43.567-.012a.237.237,0,0,0-.033,0,.1.1,0,0,0-.026,0l-12.872,0-20.068-29.473-.007-.014-5.4-7.929Zm-40.63,1.967,5,7.345L813.786,208.45h-10Z" fill="#ef551d"/><path d="M860.385,205.456l41.306.017h0a2.536,2.536,0,0,0,0-5.071l-41.3-.017h0a2.536,2.536,0,0,0,0,5.071Z" fill="#ef551d"/></g></svg>