<svg xmlns="http://www.w3.org/2000/svg" width="80" height="71" viewBox="0 0 122.227 107.672"><g transform="translate(-665.294 -780.827)"><path d="M785.765,888.5H667.05a1.754,1.754,0,0,1-1.756-1.755V782.582a1.756,1.756,0,0,1,1.756-1.755H773.592a1.756,1.756,0,0,1,1.757,1.755v51.932h10.416a1.755,1.755,0,0,1,1.756,1.755v50.475a1.754,1.754,0,0,1-1.756,1.755Zm-88.511-3.512h86.755V838.026H747.692a1.757,1.757,0,0,1-1.756-1.757v-3.38H741.6a1.756,1.756,0,0,1,0-3.512h4.336V818.022a1.757,1.757,0,0,1,3.513,0v16.492h10.2V784.339h-10.2v12.842a1.757,1.757,0,0,1-3.513,0V791.8H718.327a1.76,1.76,0,0,1-1.756-1.757v-5.7h-6.408v8.156a1.756,1.756,0,0,1-3.512,0v-8.156h-1.9v4.528a1.756,1.756,0,0,1-1.756,1.756h-.55a5.8,5.8,0,0,1,.491,2.343v4.566a5.853,5.853,0,1,1-11.706,0v-4.566a5.843,5.843,0,0,1,.486-2.343h-.545a1.754,1.754,0,0,1-1.756-1.756v-4.528h-6.383V807.6a1.757,1.757,0,0,1-1.757,1.757h-2.28v9.861h27.657v-8.1a1.756,1.756,0,1,1,3.512,0v18.261H714.5a1.756,1.756,0,0,1,0,3.512h-4.335v8.606a1.756,1.756,0,0,1-3.512,0V822.731H681.569v50.431H695.5a1.756,1.756,0,0,1,1.757,1.757Zm-28.448,0h24.936v-8.313H679.813a1.755,1.755,0,0,1-1.756-1.755V844.363h-9.251Zm0-44.136h9.251v-18.12h-9.251Zm100.451-6.337h2.578V784.339h-2.578Zm-6.093,0h2.58V784.339h-2.58ZM668.806,818.6h6.676v-9.247h-6.676Zm8.433-12.759h2.28V784.339H668.806v21.507Zm19.84-15.223a2.344,2.344,0,0,0-2.338,2.343v4.566a2.341,2.341,0,1,0,4.682,0v-4.566a2.347,2.347,0,0,0-2.344-2.343Zm23-2.337h25.853v-3.947H720.083Zm-23-1.175h4.159v-2.772h-8.315v2.772Zm38.43,92.667H721.43a1.754,1.754,0,0,1-1.756-1.755V845.838a1.758,1.758,0,0,1,1.756-1.757h14.079a1.759,1.759,0,0,1,1.757,1.757v32.185a1.755,1.755,0,0,1-1.757,1.755Zm-12.323-3.512h10.566v-1.757H727.52a1.755,1.755,0,0,1-1.755-1.755V851.107a1.758,1.758,0,0,1,1.755-1.757h6.232v-1.755H723.186ZM729.277,871h4.475V852.862h-4.475Zm44.315,7.728a1.761,1.761,0,0,1-1.757-1.755V846.76a1.757,1.757,0,0,1,3.514,0v5.45a1.756,1.756,0,0,1,1.636,1.75v15.8a1.756,1.756,0,0,1-1.636,1.754v5.451a1.758,1.758,0,0,1-1.757,1.755Zm-16.927-2.109c-5.587,0-9.96-6.016-9.96-13.7s4.373-13.7,9.96-13.7,9.957,6.016,9.957,13.7-4.373,13.7-9.957,13.7Zm0-23.882c-3.5,0-6.448,4.664-6.448,10.186s2.953,10.182,6.448,10.182,6.445-4.663,6.445-10.182-2.953-10.186-6.445-10.186Zm0,0" fill="#ef551d"/></g></svg>