<svg xmlns="http://www.w3.org/2000/svg" width="80" height="92" viewBox="0 0 110.389 126.664"><g transform="translate(-1165.203 -433.516)"><path d="M1201.711,494.96h1.686a1.847,1.847,0,0,0,1.843-1.837v-1.688a1.849,1.849,0,0,0-1.843-1.844h-1.686a1.848,1.848,0,0,0-1.84,1.844v1.688A1.846,1.846,0,0,0,1201.711,494.96Z" fill="#ef551d"/><path d="M1.841,0H3.527a1.84,1.84,0,0,1,1.84,1.84V3.529A1.839,1.839,0,0,1,3.528,5.368H1.839A1.839,1.839,0,0,1,0,3.529V1.841A1.841,1.841,0,0,1,1.841,0Z" transform="translate(1207.079 496.801)" fill="#ef551d"/><path d="M1208.918,494.96h1.687a1.848,1.848,0,0,0,1.841-1.837v-1.688a1.85,1.85,0,0,0-1.841-1.844h-1.687a1.847,1.847,0,0,0-1.839,1.844v1.688A1.845,1.845,0,0,0,1208.918,494.96Z" fill="#ef551d"/><path d="M1201.711,502.169h1.686a1.848,1.848,0,0,0,1.843-1.842v-1.688a1.847,1.847,0,0,0-1.843-1.838h-1.686a1.846,1.846,0,0,0-1.84,1.838v1.688A1.847,1.847,0,0,0,1201.711,502.169Z" fill="#ef551d"/><path d="M1242.557,511.111H1240.7a2.032,2.032,0,0,0-2.024,2.028v1.856a2.029,2.029,0,0,0,2.024,2.022h1.855a2.027,2.027,0,0,0,2.024-2.022v-1.856A2.031,2.031,0,0,0,1242.557,511.111Z" fill="#ef551d"/><path d="M2.022,0H3.88A2.024,2.024,0,0,1,5.9,2.024V3.88A2.024,2.024,0,0,1,3.88,5.9H2.024A2.024,2.024,0,0,1,0,3.88V2.022A2.022,2.022,0,0,1,2.022,0Z" transform="translate(1246.604 519.04)" fill="#ef551d"/><path d="M1248.629,517.017h1.856a2.029,2.029,0,0,0,2.024-2.022v-1.856a2.033,2.033,0,0,0-2.024-2.028h-1.856a2.034,2.034,0,0,0-2.025,2.028v1.856A2.031,2.031,0,0,0,1248.629,517.017Z" fill="#ef551d"/><path d="M2.024,0H3.879A2.024,2.024,0,0,1,5.9,2.024V3.883A2.022,2.022,0,0,1,3.882,5.9H2.024A2.024,2.024,0,0,1,0,3.88V2.024A2.024,2.024,0,0,1,2.024,0Z" transform="translate(1238.678 519.04)" fill="#ef551d"/><path d="M1190.207,520.781h-1.485a1.627,1.627,0,0,0-1.623,1.623v1.487a1.628,1.628,0,0,0,1.623,1.621h1.485a1.63,1.63,0,0,0,1.625-1.621V522.4A1.629,1.629,0,0,0,1190.207,520.781Z" fill="#ef551d"/><path d="M1195.071,531.862h1.486a1.628,1.628,0,0,0,1.624-1.623v-1.487a1.626,1.626,0,0,0-1.624-1.619h-1.486a1.624,1.624,0,0,0-1.619,1.619v1.487A1.626,1.626,0,0,0,1195.071,531.862Z" fill="#ef551d"/><path d="M1195.071,525.512h1.486a1.628,1.628,0,0,0,1.624-1.621V522.4a1.628,1.628,0,0,0-1.624-1.623h-1.486a1.626,1.626,0,0,0-1.619,1.623v1.487A1.627,1.627,0,0,0,1195.071,525.512Z" fill="#ef551d"/><path d="M1.619,0h1.49A1.623,1.623,0,0,1,4.732,1.623V3.105A1.623,1.623,0,0,1,3.109,4.728H1.624A1.624,1.624,0,0,1,0,3.1V1.619A1.619,1.619,0,0,1,1.619,0Z" transform="translate(1187.099 527.133)" fill="#ef551d"/><path d="M1166.495,529.46l52.613,30.375a2.594,2.594,0,0,0,2.582,0L1274.3,529.46a2.588,2.588,0,0,0,1.293-2.237v-60.75a2.592,2.592,0,0,0-1.293-2.239L1221.69,433.86a2.593,2.593,0,0,0-2.582,0l-52.613,30.374a2.593,2.593,0,0,0-1.292,2.239v60.75A2.589,2.589,0,0,0,1166.495,529.46Zm53.9,25.155-44.675-25.795,16.918-16.919,37.239,37.237Zm50.028-28.886-35.916,20.737-20.63-20.63,31.715-31.712,24.831,24.833ZM1170.37,467.963l50.028-28.882,50.028,28.882v43.69l-23-23.008a2.584,2.584,0,0,0-3.654,0l-8.23,8.228-27.553-27.552a2.656,2.656,0,0,0-3.651,0l-33.964,33.96Zm0,42.623,35.789-35.788,25.727,25.728-21.657,21.659-15.761-15.762a2.58,2.58,0,0,0-3.654,0l-19.722,19.725-.722-.419Z" fill="#ef551d"/></g></svg>