<svg xmlns="http://www.w3.org/2000/svg" width="80" height="65" viewBox="0 0 119.444 96.873"><g transform="translate(-478.674 -458.882)"><path d="M595.689,458.882H481.1a2.429,2.429,0,0,0-2.43,2.429v20.007a2.426,2.426,0,0,0,2.43,2.427h7.323a14.332,14.332,0,0,0,3.89,7.6v61.983a2.426,2.426,0,0,0,2.428,2.428h87.3a2.428,2.428,0,0,0,2.429-2.428V491.344a14.324,14.324,0,0,0,3.889-7.6h7.323a2.427,2.427,0,0,0,2.429-2.427V461.311A2.43,2.43,0,0,0,595.689,458.882ZM522.5,550.9H506.949V524.735a27.353,27.353,0,0,1,15.548,0Zm57.12,0H527.355V523.129a2.433,2.433,0,0,0-1.325-2.162c-5.814-2.959-16.8-2.959-22.613,0a2.431,2.431,0,0,0-1.327,2.162V550.9h-4.917V494.612a14.316,14.316,0,0,0,17.351-5.313,14.35,14.35,0,0,0,23.872,0,14.351,14.351,0,0,0,23.873,0,14.312,14.312,0,0,0,17.348,5.313Zm13.642-72.007h-7.12a2.431,2.431,0,0,0-2.429,2.428,9.507,9.507,0,1,1-19.014,0,2.43,2.43,0,0,0-4.859,0,9.505,9.505,0,1,1-19.011,0,2.43,2.43,0,0,0-4.86,0,9.507,9.507,0,1,1-19.013,0,2.43,2.43,0,0,0-4.86,0,9.5,9.5,0,1,1-19.009,0,2.432,2.432,0,0,0-2.431-2.428h-7.12V463.741H593.259Z" fill="#ef551d"/><path d="M572.187,505.081h-37.2a2.432,2.432,0,0,0-2.43,2.428v27.315a2.43,2.43,0,0,0,2.43,2.429h37.2a2.432,2.432,0,0,0,2.431-2.429V507.509A2.433,2.433,0,0,0,572.187,505.081ZM569.758,532.4H537.413V509.941h32.345Z" fill="#ef551d"/><path d="M512.478,535.153a2.428,2.428,0,0,0-2.43,2.428v.852a2.429,2.429,0,1,0,4.859,0v-.852A2.428,2.428,0,0,0,512.478,535.153Z" fill="#ef551d"/><path d="M543.256,519.014H563.3a2.428,2.428,0,1,0,0-4.857H543.256a2.428,2.428,0,1,0,0,4.857Z" fill="#ef551d"/><path d="M543.256,528.179H563.3a2.43,2.43,0,1,0,0-4.859H543.256a2.43,2.43,0,1,0,0,4.859Z" fill="#ef551d"/><path d="M502.326,473.61h72.139a2.429,2.429,0,0,0,0-4.858H502.326a2.429,2.429,0,1,0,0,4.858Z" fill="#ef551d"/></g></svg>